
        <svg xmlns="http://www.w3.org/2000/svg" viewBox="0 0 200 100">
            <path d="M132.05541450948314,9.508473909992436 133.52147265023595,9.42327261725273 133.59523426892437,9.41991105260775 134.24679582906344,9.462831252918663 134.64053805600327,9.624545184587749 134.93499897939316,9.767278683279056 137.5734666114885,11.216916393015405 137.61685810923328,11.247513236584991 138.0647406287776,11.638509798935695 138.10574707587753,11.676235016178127 138.13190943905906,11.70213495237981 138.1568882030003,11.728791820818907 138.180440578125,11.756352009338933 138.80770532742457,12.573935231095177 141.01858122263363,16.454025238905967 147.02027196646745,25.489304029725123 148.17450258751333,26.89560915389688 148.1927260882537,26.94730369845995 148.20613664247966,27.022179292897235 148.2035730700804,27.07585542894121 148.06486166652854,27.359010569595675 146.13183346019696,36.916544043049115 146.05599563350108,40.086977941244264 148.33021461778355,43.437904474508116 149.3050665795121,45.38941146768914 148.9383632575655,45.83012990920923 148.5342042862296,46.1801807218566 148.08218363240695,46.466958068916924 147.86733805604445,46.504378013959865 144.2433339351928,46.99813169842791 141.71855074182645,47.315687981247656 138.17910523539953,47.01128696654484 133.6855966255976,46.08544815262225 133.51749518553763,46.07889640421848 133.3769842826947,46.08091905570261 132.93904542489616,46.160743273183996 132.5981581339309,46.23414963357999 132.2903348571865,46.3347519981138 130.04711081998826,47.24192814777817 125.51633222341722,49.43764754599853 124.20537378331672,50.14121249333808 124.12362331610174,50.19469582588604 124.00144481226981,50.313510979856574 123.96809873367064,50.35956602218402 123.90653907693283,50.9653278261047 123.84014505106829,51.63687132626691 123.8438636592247,51.656530141916136 123.92360575669711,51.78713308736213 124.14640804767521,51.86507925598394 124.35918098646317,51.89016334776296 124.43365133651757,51.91617039701629 124.67325788028012,52.05353039088467 124.95302824846081,52.335091332266686 125.12798849434554,52.6073352232599 125.61935891338265,53.58460436954928 125.68017591962462,53.75436249149475 125.68854680471031,53.92369394644498 125.17784605005225,55.83411772817145 125.11300159302155,56.004916631946536 124.6391370172691,57.10669577618686 124.53284159397131,57.29411862577804 124.43466355486912,57.38047673949131 124.26912390198945,57.52588984972075 121.22449249924853,58.21844893087001 119.19066376923526,59.3035577136392 117.31032090320844,60.39814243115571 115.55292596977866,65.1743384546111 115.54120066091623,65.27580664965802 115.60298882550399,65.36939132400603 115.697057293811,65.39552512370695 116.26448869173701,67.02496101888255 114.26834590418194,69.05725624701998 113.52906232412354,69.73316995974585 109.3787921368018,72.607168483941 109.32869536194657,72.63235790355522 107.99192803174057,73.07053598050736 107.76098693395957,73.09413834171993 107.5410356354058,73.07550959659667 106.1282894463224,72.60352128448739 95.50241395331891,77.86742624578977 91.0439366674797,81.50757765937435 85.32816993671824,88.65361605990235 85.00750559014108,92.86207898366509 86.21911131799394,96.27247289870134 85.97894957156961,98.6765182587939 85.96970750031899,98.81712556338229 85.93710407222075,99.04657243407678 85.8932519883483,99.13974472317365 85.82499776580367,99.21507911851965 85.66334810196405,99.31884131811775 85.49789235430978,99.3820344489148 84.95307966273047,99.54052784812552 83.24725966428696,99.94276414016322 82.9665681238509,99.97164717488863 81.88935357308425,100 79.28629930150574,99.89797303186097 79.2095278060319,99.89229604005499 79.09011817461786,99.86291314441765 78.6800322810213,99.73362947474165 78.64849819823581,99.72262360855136 73.0675118219804,97.24782472134181 68.72274039748761,93.24786092555391 63.64862548424427,91.55297359938147 62.83284711743345,91.34417991051079 51.08858817176947,93.59309343603762 50.87000792030016,93.65040070457466 49.61845437935647,94.063132290582 49.569723295923744,94.09217420966847 48.84736714866196,94.88988974532147 47.75861830731502,96.00817501101753 46.5153321088433,97.00378012675075 45.72419152942539,97.35620706395574 44.11106538177157,97.24278148176613 42.6107417753883,94.1426583767347 38.47206122039419,91.92144428669808 38.30149618012087,91.87897039077328 37.686726168443734,91.83250117797573 35.18530611714903,91.70152333684642 33.39811768803958,91.85924552207561 33.25455049275371,91.8794434734261 32.99223598176724,92.0568673195267 32.78234616932468,92.20301593938628 32.40331234976849,92.3165700572399 27.71082696240169,92.33095176981168 27.593713120755258,92.30921139050321 26.319515880424717,91.95431906786338 26.097799001714836,91.78641935738409 25.636327406185014,91.18556868694223 25.419639485316853,90.68885689699822 25.513061704870957,89.61152630709016 26.58026297040292,85.10013695832026 26.581455495722796,85.09664685801127 26.649388379112466,84.89791644046569 26.999564156990992,84.08526934523348 27.506433834789174,83.47028153702018 27.788958793646195,83.25925454099493 28.24142039620313,82.90550297237067 28.48557924471917,82.69737338442732 28.860351749984847,82.32710676825504 28.944142720863443,82.24432444529512 29.050929078985952,82.07901151504643 29.09757145788866,82.00680482084364 29.107991772717586,81.98951498888378 29.126004617787505,81.94328856567014 29.591792869350094,79.61854078388538 29.660911137193928,79.25200348717314 29.645324402774595,79.05793605786305 29.6219666163649,78.93342427469567 29.615950433221926,78.90504824175551 29.583320226864572,78.75116427425444 29.518913148135287,78.54074782263322 29.47727116358608,78.40747954738814 29.433990349330887,78.33282889036033 29.057134495187015,77.98426159349836 28.998532943925188,77.9300606034947 27.784144061917925,77.48606807298789 26.223294439750607,76.9671196132538 26.088180249561937,76.93929342731853 25.873234701018557,76.89502895819241 25.769649237958472,76.87956897421812 25.24969927117901,76.80196913780155 22.495560253219416,76.55254389751677 21.563317863947933,76.80537176244975 21.182288171176875,77.09014252498648 20.6950505307612,77.26984966433209 20.364913819874644,77.3723979159954 18.23779854684208,77.32731760244916 18.155874913524492,77.18901858415097 17.949884016201597,76.5328297401253 17.9390298935041,76.42834274220326 17.97495918189593,76.35259953203644 18.05751656744382,76.32458768347847 14.954753125658497,71.9973256727032 10.302524394019935,68.30100595937816 6.071107143011421,66.7750912594281 0.9405650734857107,64.07087763544007 0.8238421944831303,63.95634878880781 0,62.52807834791304 0.011164750553880153,62.39748432855679 0.04323975425451138,62.21529216638295 0.502594081771167,60.00552132083553 0.5987762476534153,59.74971035737882 2.4428827678699547,57.234212080487794 6.171600609274616,53.12451631762146 9.525296014956366,50.36113344319229 10.998769949404519,48.69838538855248 13.085632137146776,45.52018579401879 10.786411181091735,43.153280099812356 8.14289316854738,39.70487176228965 6.397298523115666,37.16789017741565 6.327823211762947,37.02512097437548 4.346535219435004,30.18906774904114 4.348090143920662,29.99921700358295 4.408614374480676,29.800184884270745 4.551355014040231,29.630069718816394 5.216327128405284,28.978597419554546 5.465009718191681,28.818543740203804 8.207007471599784,27.713110255644153 10.05937419341751,27.362434616853697 10.412754436796398,27.36436265180624 10.718696094243299,27.404005192697575 11.035779294412755,27.519655155954535 11.39869438471914,27.787446714380184 13.206789496537418,28.490383265143798 13.794179626662864,28.683515240456963 15.034763005767653,28.581350810566708 15.50741720402071,28.06648157293075 15.757115582591508,26.823939810176384 15.767787613096633,26.92656482619432 15.78210327262251,26.978189747276097 15.801276509101378,27.00963456918182 15.897628270648317,27.043664386099177 15.923849546010025,27.05207454597166 15.95047963618494,27.05684821769925 15.97750425944164,27.05835315609194 17.95152106069369,27.075525163696508 17.982041139913736,27.07556265326433 18.043018815730644,27.072804492150077 18.103928653282686,27.06584928457985 18.134364827277334,27.060636449336943 18.288018501709498,27.027584931636163 18.31795660000864,27.019494325704738 18.346955673872923,27.01008801443871 18.374724732844427,26.998985746502946 18.400971001251353,26.985817981860873 19.23977153357534,26.467756775249704 19.2418566676725,26.46330265746571 19.331040780762343,26.448685296173203 19.20135722235274,25.934878262981762 20.175389769225763,22.570621510279395 21.306446481268217,21.100641246573087 21.967558955295324,20.59930217274245 22.47887739522314,19.06806930971425 21.754728889546143,15.99681495766666 21.16180458501776,15.419257805802486 19.926150191568755,14.643229092934657 16.872160678435808,11.027636917171936 16.872276717577208,11.002049394043064 16.86246337670933,11.00201904534349 16.83378742722404,10.926266909089456 16.83208790011383,10.819077091800484 16.849356309463868,10.712926271122164 17.307487762958534,9.257566939143759 17.465959739561974,8.779519598671845 17.474293135079844,8.754385520799866 19.026045288616015,8.498737012142138 24.974600817326074,6.141771409248625 32.89618770720082,2.5697938834237295 36.87495204459541,1.1854612168457708 43.168343765490974,0 48.570554885962316,2.1605166933739803 56.20760844723749,5.466641407029416 59.139921102671934,4.139894502926346 62.1055905480041,3.062212225163773 73.46338202823702,1.7605636945812861 77.16780484401609,2.647379438101265 77.24656864227701,2.6843566491909607 77.30622347189106,2.7454789276324147 77.42486903019183,2.9284244516108138 77.89306911066343,5.041241917294468 77.69293551212246,5.212297892397575 77.50738000008721,5.290369026248006 77.2600559608576,5.323718675280023 77.057724759516,5.322295856893769 76.94479189737261,5.306464547669022 76.82657836171639,5.2989487817877166 76.74446549533563,5.311739865524973 76.0241052212938,5.620016587528808 75.94974376951001,5.683832759249975 75.49730358956543,6.166948332342786 75.05037973183921,6.813879038157311 74.72308330207335,7.62708312126521 74.68116817924066,7.762147325363448 74.66871093118604,7.8589828808719275 74.61034145820702,8.46470898044121 74.75894832263317,8.452910477659566 77.79184906085986,8.029317628083941 78.48405823936595,7.838424315577166 80.6827446691571,6.868806611703885 82.36900403891583,5.440925348236534 82.81642240189454,3.2254614439251217 84.63946156982225,2.338992032610385 87.84855792447318,1.022176293733026 87.91595881303239,1.0010393179527548 88.98271912983006,1.0304543475061054 98.97496021732005,1.6720418971998188 99.17731105605503,1.6940839782774468 108.67232442573106,3.169155682433441 113.06308483950286,4.623083269938377 117.22443765736696,6.1433709641728935 118.89635101890278,7.775445410885959 119.51366853601866,8.92421862188352 121.7174356949457,11.041306327944904 123.43254775073028,12.602257707506977 125.69112822928402,13.552291574869217 125.74488648533442,13.571368409597541 126.24115911176312,13.742565416887265 126.8833536354255,13.932867822385923 126.92507595476218,13.929188489018848 127.38665109290571,13.765094862354218 130.371743705174,12.428124017351095 130.67663565470153,12.268734438927691 131.14369141072473,11.883586249269163 131.29038987758918,11.69925004082051 132.0773387662055,10.679894390814779 132.14872604555273,10.549486034083765 132.1976767107406,10.356507587479825 132.17533828355323,9.99571869127382 132.05541450948314,9.508473909992436Z" class="mapstyle" stroke="blue" fill="none" stroke-width="0.3" id="808"/>
        </svg>
    