
        <svg xmlns="http://www.w3.org/2000/svg" viewBox="0 0 200 100">
            <path d="M126.26073352817998,44.91710201879071 126.06150175348097,45.908513344519456 125.68437581747816,46.31932222737752 124.69452706597308,46.400838177920136 124.22585450696246,46.24674015608673 122.78319396581671,45.6858742933966 122.49362773827193,45.472206156102594 122.24063030569512,45.37993023682974 121.9965225957597,45.3482998601306 121.71456412476394,45.34676150082096 120.23657972016557,45.626561995561154 118.0487678418545,46.508576032661075 117.85034655460596,46.63628122148397 117.31977212625523,47.156084285853424 117.2058808342737,47.291817431221354 117.1575891716054,47.450623117424215 117.15634851330968,47.602103079617244 118.73719787709287,53.056519819588644 118.79263151529987,53.17043390207834 120.18542357548479,55.19466548270052 122.29465947882764,57.946115119273664 124.12918429281288,59.83464489147739 122.46409836155493,62.3704977439904 121.28842862507882,63.69718735927476 118.6125494651969,65.90206220626655 115.63744375106711,69.18114629562007 114.166050076588,71.18823656519189 114.08930731312755,71.39234550866463 113.7227932075469,73.15549899711121 113.69720089113967,73.30086825426821 113.68829265120775,73.40506788259717 114.34562788669574,74.54467021529284 114.43875987443538,74.63605160711197 118.53236675939053,76.79371591617205 121.9085711754373,78.01122760147187 125.62053675493061,80.96048318156726 128.0961998750371,84.41316114819625 128.03032818403386,84.43551151479753 128.00166057341121,84.49594624516826 128.01032096656314,84.57931534891708 128.17467899035321,85.10288169596832 128.2400450169533,85.21322906391033 129.937248472023,85.24919818362676 130.20066116688986,85.1673759856289 130.5894230817881,85.02398950269362 130.22369239993216,86.92587593716364 130.17904721858906,87.03152561158339 129.72721399639323,87.89074629157584 129.49859386124984,88.2670047638588 127.68498076303423,89.7856858942354 127.448812696425,89.89658735641062 125.90999330315223,89.73921177460215 123.94156997971878,89.65565322475466 120.8090174634443,89.72237671100703 120.31859848629956,89.81856690007744 119.86514144039101,89.92694716227247 118.3402199839588,90.34877383148391 118.1448184390622,90.47059052272479 118.02554004068011,90.58598883706851 117.76964251592172,90.87129608837354 117.65831800493669,91.04816895002794 113.54640749300914,94.53577194620972 110.02674822250262,95.28121243794966 107.66431831845088,98.088216787304 106.70379240467948,99.93996267911916 106.59359887267105,99.98719315874526 106.42452606247811,100 106.01946893415312,99.93654837609516 104.04605306499523,99.62424007008676 101.29126319454808,97.23770350588568 97.98464532236027,91.80234675288357 96.17932369594239,88.45295252103361 95.55546059510466,86.32204854193233 95.53716693897945,86.2897600893064 95.04424527914504,85.88066049457017 92.859240906571,84.70129584693672 92.6878149764003,84.68244382335664 92.38933053808046,84.69914071949492 91.96328335161218,84.82365238834196 88.30804904489298,86.78326290710181 80.66575205508201,89.39096141260715 74.91417842390148,89.17183637298224 69.34890580277319,89.75823045377479 69.08143212420654,89.81881332244954 66.88596548391821,90.04913989690097 66.30411098749671,90.03921178172551 65.00747493061897,89.91104223629615 58.712366193899356,84.96847609770705 57.39652770937786,82.7770034939999 57.25593733693057,82.58355196196764 56.95611253183904,82.36810189180567 53.89657083329471,80.29264721938412 53.8337701632792,80.25766948677956 53.08977971763208,79.84330243581515 53.05790576737664,79.83266781488281 53.03531325162292,79.82512985426413 52.973147867028075,79.81288565368189 52.870854094953025,79.7928129135025 52.47824058415817,79.71577957105953 52.372828785667174,79.69509860918929 52.328284737203894,79.68998498889064 52.25907708555037,79.69905276237763 47.26972203343147,73.68302804379212 47.13779917616751,73.55783550851012 46.84430585916421,73.12097565026592 45.29505553513068,69.9533399952854 45.290028803645015,69.88862492257466 45.350504841808366,69.35537403390629 45.470810237471454,68.4222294914455 45.55441721714903,68.22912551466517 46.15535164223217,67.057476878496 44.64922950633235,60.63133553874247 42.08244423643576,57.90272056707347 39.91548282439923,56.20238626592688 39.264063150221055,55.786996490903135 39.110774191432256,55.70743340204067 32.66250326812559,52.387020150299996 31.24164754578921,51.9496147442639 24.986580307736833,50.26577222468219 24.788174688963032,50.231916924608875 24.672360447844948,50.231616374781176 22.684637837103537,50.82664663381161 18.513642932420076,50.90585504538875 13.057035454839776,50.23646363101536 12.893806985618408,50.198165606233204 12.533762535582813,50.10009377582089 12.264179310594729,50.014056758195736 11.139483394730082,49.629083765303214 11.083423017545753,49.56981277526241 10.560839511165065,48.49963175524106 9.954536496971897,47.24219252381681 9.669535493122114,46.62644284393527 9.970662205996359,46.31558031079599 10.306535897581847,45.9206165288311 10.514701551530665,45.621946917630204 10.567122569421178,45.43424144250348 10.995666740951586,41.21966681274081 10.966818230671578,41.09862357437542 10.802611194001326,35.716847306372074 11.301875737179046,34.920971419777125 12.451806443347763,32.16845490253422 12.486673072225306,32.06679926469362 12.546310134804505,31.865976427635232 12.562427297389673,31.761716974221095 12.560226588931558,31.679473151821334 12.541910142296173,31.56265185511664 12.50650223885043,31.4268702799166 12.483150514286041,31.38304840568697 12.440730256319144,31.331497700332108 11.87738165262968,30.924644395070295 11.433066449362164,30.63005143604188 11.018616782804411,30.369483281489035 8.755264340343702,28.342102337501423 7.1818304381930265,25.2927821819248 6.741886739296119,24.08941200702387 6.7361648973066375,24.00432364430603 6.7865077057211325,23.940233886168766 6.903118190222852,23.8906659550336 7.078145020706486,23.857502916652365 7.2864089587233725,23.85122698042967 7.9172573503524335,23.7530383486628 8.598279045989681,23.595444832619958 8.984445691753706,23.465376552970106 9.370767597853153,23.289117610632072 9.450635509764991,23.23796004154543 9.811809514369294,22.956427468175256 10.12855912068067,22.615774891882076 10.1703996450985,22.497808372135964 10.145915517153655,22.19235003827785 10.044719962697842,21.94575246531171 8.652192842171502,19.38172057369856 8.543265607780729,19.215419659079576 8.309665746571858,18.880246775625455 7.12373885695689,17.27424523712342 7.089064522991787,17.251134237305607 7.02504456078689,17.230943271363756 6.964550005333005,17.222221628720774 6.729648236341418,17.198812927889033 6.626421477833796,17.19287030285141 4.757020064123825,17.283623531285304 4.716972867829051,17.30410792502346 3.6312658140327607,17.694901043969477 3.490544396160036,17.740677204287152 1.9568870530220603,17.891302522419274 1.8251308513486146,17.90251117927921 0.9570119022754902,17.71460771161048 0,17.315551609000398 0.3902717860722029,17.144513117470385 2.04044987609122,16.129281437353164 3.1926225985147187,15.415186440959404 3.3103441202946122,15.340917872054948 3.347392940343785,15.244623701288925 3.3485110996574035,14.901662161624394 3.324420107980781,14.677407833226109 3.200535178111075,14.196673397702543 3.1136563360859784,14.07530112137172 3.015615842623134,13.94688942679396 2.971916467375602,13.889655338432508 3.2589372800261525,13.406517928689173 3.3646866629178236,13.23034160194447 3.8925718112899426,12.40510299422506 3.928294508634272,12.367923128756521 4.97220946784889,11.850480306402273 5.067516524724711,11.809612651809832 5.233415756634154,11.794605102096964 12.967561343680442,11.612511789638592 13.206917232640016,11.636601356905292 13.382308711254147,11.692656036462077 13.544265185230325,11.782933513036442 13.80934728483026,12.044699593682465 13.886057286937382,12.16475286934389 13.906967578295056,12.265411422447102 13.912225063678074,13.00180978001995 13.867441714878145,14.29801424164659 13.72746383734135,15.488838241733724 13.682925486505619,15.532291194611187 13.512381264123647,15.762315794827014 13.450607591393178,15.847629213814665 13.439259342666487,15.870770126174055 12.959208622391653,17.53784737809099 12.95883970103746,17.63845750136412 13.008921843017072,17.7627298698745 13.16270649536181,17.89365849121281 13.35931451279291,17.951906757194294 16.587581466278273,18.12209202907129 26.431468621070536,18.581448967814918 26.54168921680878,18.583712350169957 26.607526722050764,18.556189962590743 31.910722741860162,14.384796224011517 36.35703838199593,11.962521293991376 35.71944115110044,11.200712944076555 36.190765955512646,9.986209605871553 36.2256767409986,9.917811017260604 43.493481522917826,3.839186470017383 46.786231370810704,1.6877211792121802 47.03460660342516,1.7441177163953547 48.37450616707766,1.540859143763872 49.612505094927386,1.13981029608285 50.7833119066966,0.4821645399219962 51.06895816681425,0.19923747232453373 51.11052662953401,0.11036588523052263 55.058063449204845,0.6234158371098553 57.4707421508267,1.582786556990631 59.86683221122149,7.145486699494866 61.10757169769368,8.43104087171443 61.133605580201234,8.457024899984 61.16072201184924,8.482275358768883 61.1887856740007,8.506829282642045 61.232506415350514,8.542420934564984 61.277980601434614,8.576612394633088 61.32499172241843,8.609500522508554 61.37331044881657,8.64118929988497 61.42271742198674,8.671774162016632 61.5066933230185,8.721091397560057 61.574997900781035,8.759590263695973 61.627359093588396,8.7868861705995 61.681073472826384,8.812011281586486 61.717800376941526,8.827189760111537 61.755384773935404,8.840856943054746 61.79392209905219,8.852790622960075 61.83346790416348,8.862878271694644 61.89386702436509,8.87578339701544 61.934636394889466,8.882866971874837 61.97568922236295,8.888556052508969 62.01693719356468,8.892702500611788 62.07896013747899,8.895699452451517 62.12027078257561,8.895330531099349 62.161438986999805,8.892890522304581 62.18193762480277,8.890849347405583 68.45888517522646,8.170541088688077 68.49982262574925,8.165146860256122 68.54034557390557,8.158104593193391 68.58041271189069,8.149552454954694 68.63985463074569,8.134653160157086 68.73795779810749,8.107167807154891 68.79633995832413,8.089753010004628 68.87328641195211,8.064674904439828 68.94930842559086,8.037790651093033 69.02451567855542,8.00945920046922 69.08037094116432,7.9873054020000325 69.1356664119145,7.9642727445538775 69.20852339370903,7.932240685147222 69.2625041370135,7.907258014834693 69.59229561169865,7.7520176187736425 72.62402291927535,6.244365670003471 74.77749377481044,4.63751376066017 76.17170027091703,1.524860206939131 76.50568377471929,0 78.64885616931885,0.1757162433578859 89.69437572275655,3.138629035549292 89.7268222845337,3.1552062815212762 89.90754389327294,3.2954234593967464 89.95383711324682,3.3364235838184775 89.99596679223725,3.379957727881372 90.03302415872572,3.4261113559905088 90.06951746013176,3.4850889182370324 91.23220372891339,5.393983434008565 91.50242651254179,5.915002941757681 92.02802976127036,7.3538118870028 92.01958018032141,8.586164466422952 92.01607044204513,8.618954310230352 92.0082547221049,8.63991160701426 91.9947470727208,8.658468778394194 91.64458230803058,9.110428772789763 91.58664028950231,9.171889076033594 91.52541786219129,9.214631249932498 91.45247399157972,9.244683383933229 91.37327982406943,9.262491317351714 91.24951027115041,9.281642466353627 89.08971789837835,13.945616007142897 93.12739830038637,15.089212376415691 93.20370804418982,15.123071949706624 93.2903547079137,15.178535500455201 93.35062420709778,15.233916435610448 93.38514755394307,15.281092787780931 95.77856257843013,19.969658711426256 96.49371306023653,22.16898834287032 96.63645571131387,23.23120692905531 105.56999310516275,28.909343844886166 110.447956699174,29.167483385899335 111.5870932508553,30.511771546807104 112.62777765551907,32.85848312216944 112.69441710177223,33.04540374916761 121.84066543156649,40.45810061197642 121.93088023424191,40.5290090053145 122.02452500842011,40.59689195867715 122.12139179070584,40.66176941375673 122.22112875262752,40.72382939225009 122.32337409487046,40.78326134025588 122.44888569726866,40.851365076666674 122.55540141100644,40.90568910199936 122.64176604218912,40.94764500336384 122.7294368543782,40.98775629796141 122.79623725859433,41.01628716553311 126.08771938446166,42.33694299374722 127.13312997077934,42.3717298558452 127.58474953196047,42.607356647882185 127.6445788894521,43.78250220266869 127.65684588054452,44.02709848412662 127.65771619307816,44.06744623024707 127.65659803376454,44.08736371009105 127.6541266880203,44.10707037773205 127.65006285551283,44.12653062300096 127.6441672358974,44.14571310895234 127.63620907528068,44.16458792304059 127.62600747400533,44.183021171030525 127.61392992901764,44.20034623055404 127.60020007217548,44.216528915849906 127.58496461738308,44.231681755053025 127.56838452259935,44.24591585188839 127.55060650172042,44.2593394612753 127.51207914745082,44.284193934976166 127.07680750275223,44.52975738862991 126.93147243135644,44.610360294434344 126.72179975504544,44.72312630506884 126.4862840667395,44.849313076276474 126.44542353417846,44.86486190055957 126.26073352817998,44.91710201879071Z" class="mapstyle" stroke="blue" fill="none" stroke-width="0.3" id="422"/>
        </svg>
    