
        <svg xmlns="http://www.w3.org/2000/svg" viewBox="0 0 200 100">
            <path d="M114.4161448850468,2.793387283212511 114.41703421015484,2.7939718924988384 114.42444411146228,2.7988276589456893 114.42575798445742,2.814879163999448 114.41977322877477,2.843253685011554 114.39989565708468,2.9241043790005707 114.38997185024866,2.970408344707764 114.38771900743498,2.996125161715236 114.38701199825492,2.9987717384564156 114.35152202043335,3.102350295385144 114.31702408092168,3.1544164715131826 114.29137145966295,3.2159219905583694 114.26708150016584,3.2887191138627827 114.23819940476578,3.3395450281223167 114.20360731148735,3.3820931145468527 114.11473899643305,3.436430108299128 114.07872603724493,3.4617377844005093 114.04412281670427,3.503096109612868 114.00636544503325,3.541509989808852 113.9591302129962,3.5698922143102463 113.8849721398151,3.594352506526638 113.83910984086037,3.58513656481467 113.82181807393872,3.587610241005781 113.81743735603285,3.58823679151515 113.77532665664444,3.5894488072542368 113.75214257591648,3.58756487600979 113.7291973033741,3.5809569935901266 113.72865463531019,3.5808628398251954 113.65316471432462,3.557950093129179 113.62896805265271,3.552645812383973 113.60368776673614,3.551446635794512 113.51709369307841,3.558278775363353 113.44227911137175,3.5637576685460153 113.3665409668239,3.570493086520365 113.33835475334409,3.5782265344034725 113.31618667733363,3.5889326734329816 113.29764180939446,3.6063759423230115 113.26521867648363,3.6397936813684413 113.25253188461518,3.662882752387476 113.23716171044285,3.6984634601991964 113.22459047092407,3.732949416505843 113.20739970531142,3.754833319332907 113.19389463163078,3.7637094515466387 113.18832244062658,3.767372033007146 113.2019173883564,3.8379993399993695 113.08414557931911,3.8585257167226987 112.75371636465758,4.190448552474118 112.4511472490755,4.989998045538895 111.88054889864726,5.579132704476069 111.21733063359596,5.704114124086532 110.84237524750172,6.0846964815576365 110.67497498890759,6.6570264053203845 111.0357054529909,7.23682101076507 110.91558750331717,7.475721638536283 110.78011992211005,7.525033389065196 110.57404728843638,7.469331165719898 110.44243658782456,7.433757305454685 110.39439848095269,7.420772645311651 110.43831950046075,7.523094677448083 110.77594206277107,8.309686900555855 110.79829673442461,8.361770195550466 110.92261223013222,8.377703580426214 112.20958720541469,8.542683231315133 113.73706171058666,10.92959415978205 113.50278060890628,11.573574242802858 113.52245446608306,11.784629322532846 114.33178995911095,12.644408123155598 114.42956094062224,12.920667253010594 114.45804587832124,13.852678254347564 114.32998905436799,14.02242550952152 113.95901808442252,14.260778333568501 113.9385875733503,14.273905080302626 113.91673534042438,14.28794597450125 113.70079196840362,14.54788140932715 113.76020641791993,14.674091107599883 114.18735808352767,14.726770139143667 116.04091532318846,15.295593263130622 116.69856567695066,15.545942988731337 117.00428723177512,15.776694180165629 117.64056639275857,16.78752301011018 118.12008895031423,17.363370004969397 118.66787298752955,17.968627212256177 118.68588460278394,17.98581883381039 118.75733789507824,18.060705314755687 118.80463903474958,18.137074289529235 119.04739397528472,18.693013754683985 118.99272401958133,18.80035675032744 118.93062105209958,18.912909872951776 118.84634401700669,19.053757913859087 118.57129176723105,19.413569094817554 118.46571458265281,19.550076647156487 117.70938680340349,20.000180432851288 117.62614032406633,20.032180729761194 117.51765378814886,20.076276361706107 117.43008907476901,20.134435998319333 117.35950884465896,20.229255687268342 117.32443399934782,20.34157342548005 117.40655748105291,20.55703918113087 117.41301814122116,20.572243302299036 117.26168907437874,20.877215050776986 116.91836935334031,21.204017633596724 116.88178890373183,21.631397836069368 116.8704082813674,21.70076177072279 116.80825823700228,21.764240239117626 116.57862490754336,21.9166666252959 116.57643882830799,21.94834936723448 116.67684782712777,22.100238221008592 116.83117783124663,22.197428872950496 116.91198829589817,22.257668451827925 116.9430068258231,22.284308831675965 116.95750821752632,22.322177475978492 116.89375327944042,23.08290223605442 116.63092646808342,23.61316682542413 116.56421681366047,23.674558504008253 116.48089929102746,23.764312720397637 116.38386613265583,23.892503927453305 116.35072229547312,23.99905859930017 116.33604457944507,24.14374469004883 116.33979104334983,24.198535333759796 116.32769913208777,24.37070234069498 116.26819224069271,24.55742551970726 116.13710109767388,24.87785046885902 115.99227976788063,25.18164187150086 115.77716494899028,25.32525546527075 115.47129617191501,25.62087260921981 115.45543297439173,25.64350974216693 115.44438189020364,25.695780488748017 115.36728365172372,26.24213424467758 115.36311520776141,26.53606860406229 115.36329752368938,26.55473416001147 115.42619052685328,26.973483886002473 115.46215384132844,27.104796718340925 115.46996774788408,27.132968380786156 115.48626918838627,27.155320484608314 115.51059424155808,27.17568765587459 115.5878944826633,27.216647111500315 115.71211240083304,27.37877219142206 115.87915145134724,27.60274431177279 115.9157027988817,27.657269613055533 115.91900588414845,27.68370114273419 115.91955368787146,27.695257233478856 115.91882356822047,27.702434318205054 115.88726322617808,27.919546908800914 115.74647338941456,28.195455101895433 115.65976119558003,28.298740070265914 115.63918603008655,28.35348962869723 115.6339887422565,28.387519367215624 115.63278785378148,28.41912250642507 115.63863822636354,28.452097722774653 115.94112945110508,29.694262353440433 116.00860260696572,29.85226349845308 116.04909043782402,29.932799205300938 116.11240456510146,30.1385440126826 116.19515545325811,30.844795684018887 116.31600095475324,31.903487152453245 116.19975786048175,32.11980799547956 116.1775101817452,32.123380702891474 115.7975577985558,32.196675985207186 115.10715220587684,32.628250309941386 115.08034662896803,32.6451226646381 115.06820336110746,32.67605388834279 115.01594459773322,32.81811052121563 114.98700515413154,32.95535247292188 114.96577604794204,33.09722422203841 114.9621408566694,33.13650602875951 114.96801262783436,33.171874462628296 114.97725339190279,33.19189583279382 115.13930143692495,33.42261364243897 115.30678557796519,33.69588467416899 116.10699842710143,35.323454046962354 116.12100936328325,35.369281252241166 116.1263033727096,35.39699755284093 116.12241995787225,35.410913479315035 116.11381687157846,35.420315160726695 115.8126052820989,35.58472560930908 115.5919131365428,35.680289113002075 115.56816413322646,35.666617986317284 115.54004125954896,35.6683024827678 115.4329516231287,35.713284871991185 115.35594925029868,35.75225768317424 115.30454557429931,35.78813197954361 115.2796710055165,35.813721260997 115.26244086651401,35.85025206589193 115.24778026935131,35.970286989064164 115.24881681671016,35.99923584804314 115.41152308214589,36.79361972318025 115.4165911225369,36.80929889289062 115.45256898804787,36.88775037775793 115.8389075643361,37.571699589984384 115.99041209955936,37.80682379583403 116.2260353203649,38.149881598216574 116.3481964067383,38.38237976996456 116.57097363021833,38.87057217739473 116.60899805620497,38.957833886840255 116.62151708318126,39.0055903883589 116.62013473472227,39.0185262597336 116.60990535612235,39.05164441861705 116.58767907596628,39.09109056645555 116.56236284043344,39.122903411778374 116.44695429089792,39.241669826952084 115.88915571685581,39.74677995407435 115.85520472512073,39.76861934784881 115.9392703422165,40.25180791063853 115.79111340131136,40.82654988267321 115.90932259738355,41.4118721700695 115.99208375686086,41.45039561101021 116.03617339720266,41.49265952425318 116.04083657640149,41.50453402591256 116.055955103238,41.561361814721906 116.05591572984574,41.662613917710345 116.04113102090312,42.364690297538424 115.95938501020417,43.00107559549305 115.95727682180934,43.04273778058311 115.96258281444193,43.07189035407175 115.98739318747602,43.1439496542359 115.99965628740136,43.16538161899044 116.07715681924147,43.231712946466274 116.20361388513307,43.37372335840034 116.31648541867152,43.513458672993835 116.45872265558432,43.7745333683768 116.51162851210745,43.901856648906744 116.61916238311215,44.25760124315834 116.63036240143661,44.297561812931306 116.63664502539444,44.347503537741936 116.63669894982495,44.37101287693112 116.63449746360978,44.41876852250637 116.62841941010439,44.45771822321974 116.62846391915576,44.476817742431486 116.63236530880246,44.49737921283135 116.6931466998004,44.64841897083308 116.70240971839331,44.67131374271975 116.72417892481714,44.68883319056474 116.9166309324605,44.79963248532949 117.04728126466846,44.856885677968116 117.14785546054841,44.88961951830134 117.27401380222325,44.92861629589748 117.4101336122384,44.98007903198584 118.03696915058654,45.34078296182528 118.83908732955075,45.96324291792913 118.92866864539067,46.03342513439534 119.08242088776849,46.17203830729834 119.31329276721156,46.3875305971918 119.5610113230503,46.633568936296946 119.58387100126103,46.660416454428194 119.596637395858,46.690177603616846 119.59935929561259,46.77160862717585 119.59963405341688,46.79383233950054 119.60201271989845,46.85076797716784 119.65869414240036,47.053233665695835 119.74660037716524,47.2486052959985 119.76743403754165,47.27379485192187 119.77886344867501,47.287217755044416 119.78875729749547,47.297661975418045 119.84251224979036,47.338362936161445 119.94050577656344,47.39758736626294 119.95793192658812,47.402581795527325 119.9704209955488,47.402955842757486 120.00617374796842,47.39195953894329 120.02847535113547,47.38031186226325 120.07336187470653,47.346894123218426 120.08379068809975,47.33435883331714 120.0914839066466,47.32255280712344 120.11547171815096,47.28573868499033 120.15246045272274,47.26675043841009 120.18336086246845,47.25977193253321 120.18805913534442,47.26021959088879 120.31092123929719,47.30295427295702 120.45097667669218,47.38958001651711 120.46464523554742,47.40094951161869 120.5868602463513,47.76128966554743 120.59387555778967,47.78588091709146 120.5948924184536,47.81363573514071 120.59679090073445,48.01322459817462 120.58299395038175,48.041106951778545 120.57104241382339,48.0519799997544 120.54284250524692,48.070651547306696 120.5296421473886,48.08225471493414 120.5149824061699,48.098656300804976 120.50732513724176,48.1121254248669 120.50261744898911,48.14163407077574 120.51271758015,48.30929025642264 120.51559012592652,48.320992713474126 120.68354075607567,48.55316049110116 120.96406077177052,48.92431548886135 120.98236939935612,48.94833154649451 121.0206702950326,48.98844789795159 121.04726530988586,49.012392056346116 121.09468285785087,49.03400120136767 121.1261310713196,49.040193095334736 121.33689085060456,49.073797430023255 121.36877473922263,49.072805391717004 121.38079303935928,49.06911199629752 121.3945300736808,49.06133489530459 121.42484159442081,49.02684893899734 121.45134502333931,48.9915892099305 121.468665892335,48.96113217882463 121.48980598041685,48.93941004928479 121.63127885994797,48.87161077901771 121.66901654492163,48.85684575677123 121.69907984210182,48.85678669668222 121.73763409700211,48.862589136439325 121.81552493899618,48.88006921089206 121.84163720181672,48.89041842155737 122.33632707497785,49.113416478411814 122.38392950670037,49.13827307238467 122.46297758405964,49.18570089166853 122.51333444137947,49.22354984927432 122.56250838503364,49.27019533636531 122.8601917761551,49.6052038477802 122.92219973392852,49.68317600438896 122.92893172812992,49.70465846979983 122.92759217683432,49.72238077621171 122.921257340334,49.74301842556654 122.91090128212218,49.76321098439597 122.88723787313506,49.810323816539274 122.85563387798284,49.894122379317615 122.85753236026369,50.01568944103043 122.89091329374641,50.25354325012273 122.9042506025373,50.30911879385673 122.91902247232969,50.35837148429664 122.9565941042992,50.45498095072456 122.97969858229862,50.51215197280449 123.0611552841575,50.62545233394638 123.12832800391581,50.71869794313237 123.14873112480201,50.76317960551368 123.23812584499885,50.9776875605914 123.26767215241317,51.055509927119175 123.27388715684872,51.07900728310213 123.27704045203508,51.112795645604166 123.29703785578754,51.3764732646191 123.29950554037431,51.43530224890752 123.31768920023599,52.29056594852383 123.31110271639984,52.355121193613776 123.30970068124351,52.36236589786227 123.29829352463705,52.41758023351634 123.28598249188433,52.44353329087983 123.02537086183672,52.97948391171542 122.79130716975901,53.400805747378804 122.74662949635794,53.45575645249021 122.69786640549665,53.52738606910814 122.69172672407208,53.54478140517262 122.48216440948859,54.6670566230302 122.48105168317477,54.67732879879654 122.52948437991571,54.72672956743065 122.74008152997007,54.99535025911026 123.03742083187696,55.38089366405599 123.05633289950161,55.4161551050096 123.07223033475805,55.45144051237569 123.07807728356654,55.485854569444314 123.07624214109286,55.55767163764872 123.07653915342405,55.589261937709146 123.07928844336223,55.61460898720279 123.09258038715775,55.63986359481828 123.12755936681657,55.67498808484115 123.61960095135093,56.11876644941168 123.63888621026176,56.12828025939824 123.67282265095862,56.1414412438649 123.70752430498115,56.152396462400056 123.80620772207138,56.17277989658951 123.85862312307312,56.17855922587693 123.91334785914856,56.18360073202347 123.99040843612178,56.18198727886759 124.07826245834414,56.18255819306151 124.11680301815264,56.18689354597016 124.13762212749083,56.1934663347139 124.16462799513697,56.20957861174344 124.20553609416237,56.240357477536975 124.27426491887252,56.31002184829576 124.3074720958624,56.34448811790627 124.33141368642737,56.37015785803158 124.37701663455518,56.43619046128884 124.6917469928096,57.12976646802013 124.69704014629195,57.15892160933832 124.72419066835934,57.46684037066282 124.7097414891962,57.483184608331435 124.6912933428509,57.50599207399907 124.66744333822069,57.5251369582068 124.64206461882469,57.55016131706939 124.61283843421003,57.578133544721915 124.59125496748773,57.60072445672965 124.51605777911821,57.67216405393094 124.45702336843276,57.71847572312803 124.41136649587446,57.75234967996232 124.40077847702418,57.77459136709637 124.39895103803917,57.78259957278498 124.39410811074194,57.838115200487195 124.39045836843107,57.87060167320155 124.3756942021298,57.92023012275779 124.36215061099847,57.961000414910266 124.33870889133158,58.00769297888342 124.3109343865862,58.0549855591233 124.2868618366942,58.096364426975185 124.27388744787123,58.12214800756156 124.26873381314857,58.13809166375737 124.2670381894346,58.14248693269842 124.26608038886027,58.144959752946136 124.26519619941381,58.14756610035106 124.26461758172877,58.14843317093278 124.26321554657487,58.149830926372175 124.2612220545857,58.15152398225659 124.26107740016444,58.15179874006149 123.906894902469,58.22482012051569 123.87064227915133,58.22913321889864 123.82866596286348,58.234063452413686 123.7955948808622,58.23776369537968 123.64482303311945,58.23744014880523 123.57993140230484,58.235743669147865 123.46922540536285,58.228673577336224 123.42532236066413,58.224510269034255 123.36697955218138,58.217946724478516 123.26678282730515,58.20168551331198 123.07802849479759,58.151601873098336 122.9941143796702,58.144659316841384 122.9529229634054,58.142617892026664 122.92388594226583,58.15148204103416 122.90242829921142,58.16554604570186 122.84133448890249,58.23601996765147 122.78325959067692,58.30729607967876 122.1823514313918,58.86551252524954 121.8171657823381,59.150377309230315 121.79230319676151,59.1759605990806 121.73739956853166,59.26355013481691 121.70574935244005,59.31456178877674 121.45563757908153,59.943772569834735 121.11072837129969,60.687722552752426 120.66407746095202,61.23581815333535 120.18456260688747,61.64654683448811 119.77336914851135,61.69177830321654 119.73181738011061,61.71294749337242 119.70132268749865,61.72999103673303 118.84898203431518,62.370472879410116 118.78140787714068,62.43185514261817 118.73244107176852,62.476923126172586 118.7187108849941,62.49984015258555 118.70912346388396,62.53918701099878 118.72004358874258,62.67480951794602 118.72397664829043,62.723659059082344 118.72403570838004,62.72992370823143 118.72297433866473,62.78868507299756 118.71343827415309,62.80886650456353 118.6718437085841,62.86798051797691 118.65095783566761,62.88826038302476 118.39474318644723,63.05591571272767 117.68328652378918,63.43316074719949 117.66383093215906,63.43333022397661 117.23767900834747,63.54962809861954 116.83625785484143,63.866579629785264 116.61438964316677,64.29037839422402 116.59314598594392,64.32598666341046 116.57239107235446,64.36015249691621 116.52917278231135,64.40743994149577 116.49086418314133,64.4431969736311 116.4669414233297,64.46111614700614 116.39045261649197,64.4938542670563 116.34534782737424,64.50142833829429 116.28953604328544,64.50767860759504 115.9373384781465,64.4903842728426 115.78714867185992,64.47917398319869 115.6630189158514,64.4569870764373 115.60635461221483,64.44193788100925 115.10921160550275,64.89806066012105 114.40215877121902,65.4824951631074 114.28042052084474,65.55088349356645 114.22320670159716,65.57224355908235 114.17869336931227,65.58265525360962 114.15642685982236,65.58391691406165 113.67863330776983,65.60133792842537 113.10767631709122,65.69518098604793 113.07754112067119,65.70366338433536 113.06865129336444,65.70821101118695 112.04212531890138,66.27063082320728 111.86644723247224,66.40398508036046 111.37349321236137,66.8820747888008 111.35117021061141,66.90907894455954 111.30584116434389,67.04733775692851 111.29958764245765,67.07515505883971 111.29984956111414,67.10195806791897 111.30253208747403,67.11964442471152 111.32953881106415,67.16104897086265 111.41985024655263,67.2602885799205 111.52836331671456,67.37324759086604 111.53752362211047,67.3860901644186 111.54573468636474,67.40468467707254 111.54496947303906,67.42910388400867 111.53715984619855,67.45167082960394 111.36481737088374,67.7925733667107 111.18202468359036,68.09097061455874 111.1572271497065,68.1213471869927 110.59500163681915,68.77876814794601 110.4957190594074,68.89070156760748 110.31338258990472,69.02922486646128 110.01877717095864,69.28554308482266 109.78943828599893,69.49245796672098 109.71434809054398,69.56301166258719 109.66719502906501,69.6165654682026 109.63285543906397,69.74850485105041 109.626225302118,69.78877099258787 109.5897612608032,69.85754603823801 109.55548244277976,69.89327225641378 108.99071820200979,70.38751686786081 108.95935301504313,70.41316538059188 108.91191578038078,70.43752295960945 108.88537982561714,70.4439836197783 108.73191774802339,70.76079734406987 108.66972747432445,71.22374284737383 108.66850604320807,71.47931468316166 108.69967693104294,71.67322778604976 108.78945254601464,72.01773213264126 108.80290027149366,72.05829785434007 108.8177859817477,72.09214870070467 108.90178483526275,72.19816584014798 108.93642914108366,72.26442698027135 109.32129121514615,73.01954702349732 109.35389751992652,73.08439328931534 109.37372972661879,73.12924728704066 109.43646352432565,73.28503667451807 109.58626558829025,73.6626976974425 109.63078405623428,73.77948345977725 109.75195053647307,74.21673611248683 109.75144467397187,74.26747985618707 109.71337745081942,74.5818231568724 109.65994690104175,74.87906419648488 109.65300177695524,74.8991018295736 109.64287339966677,74.91854115828296 109.62321837324089,74.94285679607809 109.60038351738663,74.96839283785692 109.55406243281408,75.0121856370556 109.45253214824537,75.10646693765705 109.401131040078,75.15330501199485 109.38082121701213,75.17094668854612 109.36050283451601,75.18494923648394 109.32938244733806,75.20322448227978 109.28682751336763,75.22698546880417 109.25951179424007,75.2403970734752 109.21885106283293,75.25930058166657 109.18629012304794,75.27428575253457 109.12660605138646,75.30245313526345 109.11641690212038,75.30898826250049 109.09757844562114,75.32293671482095 109.08247960548196,75.34389431578862 108.95310377287203,75.55661780023522 108.92270494591237,75.60826285225033 108.71198368407568,75.99161675418652 108.69873967310754,76.01591784094525 108.6965672889664,76.0953468130824 108.69060478780824,76.15236034159206 108.66958196395919,76.20855387640215 108.63982680637487,76.24424072118504 108.59490690101465,76.26857518973351 107.909292879032,76.51772402685799 107.81651375895431,76.54888721120237 107.72132344654992,76.57269424747746 107.69050691924785,76.56710168502242 107.68008495340173,76.56301284378925 107.66293698495734,76.55407165988278 107.61731092635863,76.50661388258273 107.38383269951063,76.28709095560171 107.10036481502586,76.03594691460067 107.07618698410487,76.0265914541284 107.05712341451182,76.02676264279229 107.0174358906588,76.04004945092686 106.570227761209,76.20742317527836 106.54150487126842,76.22287979972573 106.48447080011924,76.26202379957269 106.4625774819155,76.2848475281635 106.43089302809075,76.32821201332537 106.21375989485476,76.5943925817929 105.90194059982755,76.97636071149655 105.88099566682146,76.99218624751435 105.82194328132665,77.02934103508848 105.78510690466724,77.04884627143336 105.75779204148367,77.06165460725278 105.73172942337607,77.06657200161818 105.71201533686059,77.06783195018343 105.69484425794528,77.06787474734925 105.64711685850128,77.05828219057756 105.62165939231829,77.05166917249817 105.58601277687167,77.0408337860278 105.54909080588061,77.02818208783529 105.51280308888579,77.01492181394336 105.48986894360807,77.00102300633583 105.4630967484884,76.97863666478052 105.4471368293688,76.95622635681275 105.2862725539563,76.67074015798293 105.2120776752125,76.52589742960738 105.01382065998246,76.11604352252685 104.99726072459734,76.06545624526483 104.98656913660362,75.99949742432105 104.92735069810708,75.19205527791551 104.93141557292596,75.0810608280744 104.95146005356177,74.80204898450644 104.95155249544054,74.80077106113184 104.98978063593562,74.68940855566368 104.99511401875424,74.65713863660861 105.00757569752889,74.56002758739584 105.01445748181068,74.50174811871781 105.019826814248,74.29995263380901 105.01595538261932,74.16308986499266 104.99169794896982,74.11742443300167 104.98729583248104,74.11472307588782 104.47087013468769,73.83963230866271 104.2949130107367,73.7646867676284 104.04460865013198,73.72388206655472 103.82952122142765,73.69233302296263 103.73109972299393,73.68556935885886 103.48312866387539,73.72755594646675 102.96372085955896,73.80543891378224 102.93764968201867,73.80793073597138 102.91602170624255,73.80798551634344 102.89884463572413,73.8068145858834 102.87529506720111,73.80141255641102 102.85301315072897,73.79418856599074 102.83198861499436,73.78210675486007 102.8041156767671,73.76507177093274 102.47721894018365,73.09820735853462 101.92133083162861,72.2638962954143 101.72249006305442,71.90399438446386 101.52749847158442,71.55682719820862 101.49106866800034,71.49624438606061 101.45530222048892,71.44536882708874 101.42848722820342,71.41085376870929 101.39466206013869,71.37150006274956 101.36149596842907,71.34064159422688 101.26711794623372,71.25897261842447 101.19761106904522,71.19908312036473 100.85971032515707,70.93541063700953 99.62216607652611,70.20531067293042 99.56709981906565,70.18748308549016 99.52255909659472,70.18116023219547 99.41511766746878,70.17688736314938 99.34985798102953,70.17509672972648 99.28355147590834,70.16900908965572 99.23021935961255,70.15562316328456 99.13697546231394,70.11627801675812 98.41988155695896,69.76833962557225 98.23149699196645,69.6585904020713 98.08721062674843,69.56657067490609 98.0265773139453,69.49810804856693 97.95234134992124,69.34910783230447 97.92038299423376,69.29822645291816 97.8239935052399,69.18684340481047 97.77743190059378,69.14570830961584 97.7047717282189,69.09978968959093 97.6404356046184,69.07205267516298 97.55194818434138,69.05226600465537 97.46858272888099,69.04399588031087 97.35215475085442,69.0412748365009 97.05455267434948,69.0863667864684 96.9605255889134,69.12909205316056 96.84684005327789,69.1937140618288 96.80429967034326,69.22174021391 96.74330600540176,69.26970214182506 96.70967513647122,69.30510892195466 96.69550670671791,69.34552588070456 96.67788112189992,69.44112533401687 96.66763291254665,69.47143514287252 96.63489222466814,69.51490251242129 96.28570758000944,69.75923238866223 96.27442111140932,69.765728998451 96.00445573277806,69.91788062682377 95.91586131958404,69.95891882923463 95.8789812898148,69.96447989297599 95.77213474129526,69.97448073471038 95.67034424996048,69.97293746890695 95.5374059812593,69.97936902700299 95.48018189069349,69.98923377375002 95.2051467597832,70.08266426669293 95.11105890237195,70.12574988552224 94.92874639928172,70.23769614433334 94.91543733662085,70.25411399312736 94.90343016374645,70.2802363560793 94.80321032840173,70.37698551245742 94.77526292310507,70.39101870316615 94.7421986886509,70.39657103628555 94.06275687394037,70.3863211150449 93.8496124365683,70.37538661033855 93.42378662716192,70.29770376257109 92.34993725849817,70.08715882505923 91.97824387239042,70.00709303109265 91.89837580133099,69.96660691212236 91.80412017903,69.89652312913803 91.70153109257795,69.79870421479997 91.60523318951643,69.72576414896169 91.49446214088171,69.65405647031272 91.44086468215829,69.63476710287303 91.3890920945879,69.63669639911346 91.31094960525802,69.6652540919957 91.17403804767272,69.79603880730605 90.94680307139029,69.99242387449848 90.86801605674351,70.0555171683997 90.82805548696933,70.08083408868909 90.77799393009514,70.1019324067384 90.66762003915905,70.1286061683762 90.61655018105603,70.13217374012838 90.48925001099335,70.11009125845139 90.31223237327347,70.05842480785337 90.27973477329567,70.04153019863035 90.2402047430117,70.01373412411338 90.15665868351135,69.94844978650454 90.13122689562884,69.93713592771961 90.11555114969264,69.94000162595025 89.98655107620085,70.00540322779311 89.87312489139227,70.07742931735619 89.55773374489472,70.418595485005 89.23964380911593,70.94145873249933 89.2383539025357,70.9702740643199 89.30965226908808,71.28799680041564 89.35922508232888,71.41221129481242 89.42691735968262,71.53816934574934 89.4634952414591,71.86152846859801 89.49739316470767,72.31295982238035 89.27605135817312,72.52363743110662 89.21398006059496,72.56696014623473 89.17287680649136,72.57886118213675 89.10761284033457,72.58958615191901 89.05186696388006,72.5939257845446 89.03936419982513,72.60028030774167 89.0157307488536,72.62400534464736 88.6639337651893,72.99615666042953 88.64557121317321,73.01887339610579 88.63480344622697,73.04678998744225 88.64620204340075,73.21471665117711 88.64136339582107,73.29178749947161 88.61489163680616,73.36710024018956 88.49721911719232,73.5634253913496 88.48833613743268,73.57073343540404 88.474982565718,73.57198568047939 88.17066989359456,73.49037062910625 88.10767417723123,73.48327639969285 87.9588196425227,73.47947019094377 87.8863186756073,73.48332792748064 87.83863664115624,73.49074981199615 87.76621356508139,73.51826924563336 87.74463951373576,73.53471534055682 87.73450856861773,73.5486997424966 87.57446942256209,74.01394088578127 87.56506945303903,74.05644103938026 87.57412362146195,74.10252673954078 87.61358260845007,74.49739735882937 87.6792831057002,75.33086617372443 87.6820769046922,75.40730704773661 87.67770645810701,75.43219616755523 87.63989088229037,75.53848892074681 87.4862927097105,75.8307909962229 87.4679455646742,75.86057525588063 87.42798585084644,75.89406575010807 87.25574180901108,75.96259257219596 87.1390972773234,75.99896331569045 87.10359531629804,76.01704854206903 87.08121411040246,76.03980208330799 86.92622075021336,76.2984450437229 86.88517142053783,76.38715244143397 86.86500111623653,76.44242583717644 86.84489928739664,76.51832917878446 86.83272006991739,76.68218668798288 86.8312855089159,76.72961108349378 86.86239476882918,76.88306545759762 86.87889478818312,76.92223256791426 86.93954094013647,77.00029716640118 87.00141708263887,77.05197457307398 87.03479288046248,77.07083716717499 87.05918726504214,77.09602073149524 87.06450780871053,77.12378325303438 87.05071428213138,77.21364531828232 86.91590834510893,77.90402780049159 87.03459772538427,79.05241100145338 87.04261192267722,79.38823693873705 87.0414469838209,79.61455502853615 87.03906660545134,79.66431375266592 87.03912737742651,79.68312310709236 87.05235170169973,79.83658946440244 87.06477058330857,79.93848523676681 87.07059185381904,79.9681975971859 87.07957155517498,79.99183532787256 87.12182177332554,80.07604645533056 87.17489197096485,80.16386452793361 87.19085445791401,80.18323281334712 87.23295146221064,80.22133170640195 87.27119757751505,80.2485207459176 87.30050935646135,80.2666350743696 87.327255017339,80.27747730838648 87.35588546540325,80.28163976074507 87.37942390666403,80.28399531675755 87.41947948614654,80.28205574919765 87.4690916727796,80.28494113412442 87.50409033913334,80.29151221098138 87.59255636082989,80.31308968610057 87.62693618016475,80.32512236608494 87.65431780692661,80.33656906727356 87.6919373717235,80.36679499368375 87.93996577904365,80.566283711349 87.95082855570065,80.58202622086533 87.96809977998339,80.61291978306393 87.97964303157843,80.64261588055984 87.99503546027525,80.68261479659301 88.01109723665029,80.73292817199292 88.19659812860402,81.33501325334059 88.39227533067117,81.97783695693836 88.40402058488908,82.03523634469575 88.41987351109171,82.14623952515821 88.4213825391626,82.1935850026953 88.39023304991306,82.92822163755244 88.38779018768032,82.95917425984004 88.37645835408726,82.99439803928756 88.36196295398473,83.03448528867122 88.29565216914841,83.20525026045068 88.26158220129497,83.26820574747836 88.25591500058245,83.27446440502372 88.24703458865238,83.28186745878648 88.20586628285605,83.32700391780658 88.17236637325253,83.36840332829799 88.16117405841919,83.41345504892983 88.15423150216223,83.9083999932003 88.15968129327209,83.94507802034606 88.27625649354947,84.19478561726955 88.41042047308216,84.44866610905974 88.42068323347121,84.47594005815233 88.42394951317524,84.50323352275299 88.42275119252979,84.5256866278872 88.41711480577685,84.55239976291725 88.41083046993103,84.56822872270861 88.32044285548515,84.67407809726157 87.77895856109545,85.30818573004545 87.68095305111613,85.57251129815268 87.65101129788631,85.61484283091792 87.62448219066978,85.64457573397655 87.60438892126501,85.66023436104679 87.57920193317119,85.67304012903664 87.54988929828333,85.6786371423973 87.51752950517967,85.6837796498553 87.47856867720162,85.68705192116245 87.43043213685031,85.68461333864788 87.32699737840007,85.67303841714985 87.16499213054128,85.67070853943662 87.14019802043342,85.67138901437526 87.10652007461707,85.67755779787203 87.0468188840878,85.69775806019136 86.99792226606992,85.71610674592392 86.95983364433455,85.73502925605732 86.9325393237899,85.74906655529371 86.89637229480628,85.77162511264437 86.86592553501926,85.79355951612716 86.85705539440987,85.80329330354655 86.76021995894357,85.93767383673851 86.75518358845856,85.9454689125414 86.66541482103156,86.08871873040057 86.5813038389404,86.24555236872673 86.8466719460096,86.37965557628362 87.18949179614994,86.76056986857319 87.19300972318979,86.80084730856277 87.19595759197973,86.84044838214137 87.16288479809288,86.88893671519776 87.1594644485909,86.89331828904518 87.13410199211624,86.91463042173555 87.09667244673844,86.93961797503604 87.06875414351336,86.95669062046885 86.57179773244435,87.22259369211204 85.97998482686485,87.50551120504302 85.25419025767576,87.83817443176487 85.19250242270444,87.84504851255615 84.61248527199736,87.7139214199186 83.622207641132,87.563585247324 83.60648909802997,87.56132298913305 83.37070752771137,87.24523578953081 83.36491450333094,87.22462398966391 83.36355526534042,87.1985391170294 83.3679419748494,87.18032207537918 83.37802755497205,87.15420039718195 83.38681809285535,87.12201607245852 83.38924554810586,87.08803169893672 83.3879196919045,87.07226008734759 83.38339089580626,87.04921809321071 83.24865685802366,86.78153808323826 83.20801666925543,86.70634517458448 82.92993865984933,86.26610784752287 82.86276594009101,86.17908409031953 82.81257513577535,86.12390895687027 82.80656384584825,86.11805190792917 82.78156944500064,86.10178470515953 82.53067191567509,85.9431671097689 82.46913558267214,85.91719539284072 82.16603835006195,85.78970349147706 82.12845473488377,85.77847437107978 82.09501902102899,85.77638415749612 81.99179225680474,85.78125361903538 81.92207567350466,85.7899970800353 81.75354129001137,85.75265655276088 81.4689529757241,85.68613862964135 81.44199418496133,85.67010424345355 81.41649905727165,85.65198221151226 81.39418033523926,85.63324304443768 81.37694677246321,85.61448847038389 81.35713510840985,85.5848213037721 81.32641872647766,85.52849270110612 81.28479591478107,85.44367984549461 81.26681596943027,85.39277090473361 81.24631441506219,85.34793659370504 81.23479512988206,85.32673744553297 81.21498945743181,85.29949619347481 81.19774219956153,85.27649528461698 81.1797340080807,85.25641399841905 81.09095043141404,85.19677529175114 80.97379318968049,85.13028390287485 80.91832378291826,85.10377191452427 80.8691275847372,85.09555657055245 80.82706909789128,85.09210283926194 80.79922782956517,85.09237502923727 80.04835412114326,85.40592829423865 79.7138643113804,85.57066588435771 79.47840457574948,85.70728299744137 79.37964069998917,85.75028558976798 78.81166923960232,85.98969635975733 78.75450848884368,86.01271010776479 78.6913749656062,86.00778928962582 78.6100089937381,85.99818303776111 78.44843428537197,85.96670144250263 78.37774620640336,85.94731175850619 78.27906878091625,85.91931813227076 78.22876584802448,85.89824651965337 78.21430126188397,85.88889533889743 78.13109244405108,85.83407456598158 78.06738715067812,85.79508823089418 78.01339938180075,85.76518396798298 77.92588688096097,85.72498304932633 77.47735460720023,85.5864116464577 77.35664092097612,85.56586318639674 77.24675149395833,85.56308565032793 77.19159108273352,85.56508085420327 77.11927071985811,85.57207562300333 76.79180392502474,85.62652731316007 76.48305404273782,85.67934757535154 75.90441838454572,85.82035995737624 75.89517933236529,85.82868828586635 75.8899632137819,85.84127664425293 75.8814628406851,85.89740170359794 75.83185493376716,86.03703071003098 75.77544912501354,86.15691943808446 75.68546209204229,86.26119986853413 75.65487324566357,86.28807392090864 75.62975901275361,86.30619834949141 75.17446050705833,86.42860526278801 75.1613260568343,86.43115083821775 75.13687517999459,86.41738555776801 74.96649709459491,86.27665734892489 74.93134778221437,86.23295100000126 74.92096775759009,86.20683976431218 74.91879280561696,86.19587598634433 74.91248535930265,86.12830268511321 74.90953064296804,86.08968423446419 74.9037684325472,86.07186674715531 74.89453537196744,86.06084664811671 74.78873393024185,85.96130386393527 74.75245391673813,85.93810437622751 74.7289856628292,85.92647125058448 74.7255593217241,85.92503155392266 73.85792124955216,85.67177076509533 73.84019466342274,85.66834271210406 73.79629504249758,85.660604984504 73.55652477631507,85.64200362430356 73.54571763597413,85.64264814962289 73.52540952479626,85.65303245396413 73.50829322625545,85.6664382382201 73.49942051781406,85.67435656986072 73.49374903738398,85.6877246926106 73.49064281908099,85.70715118216974 73.48886502480892,85.74174070761859 73.42400848767144,85.98083905829634 73.31086048444071,86.26566104511069 73.26861197817571,86.34983707889276 73.02939893109533,86.58210842566139 73.01057331374388,86.59465912254248 72.97419743459028,86.60130466646763 72.92360519285599,86.60422685695771 72.60902205685481,86.66651727602652 72.18139191893192,86.82762121556861 72.15167014313676,86.84096366001924 72.1305651487296,86.85518601420121 72.11764468433469,86.8770543388598 72.1177559569668,86.88719897907207 72.12595674990284,86.94219094065181 72.10892176597612,87.00061335186369 72.07646353939057,87.04462338947636 71.75446879019152,87.35457587212568 71.7012496584134,87.38329687899264 71.68561499775745,87.3891611178576 71.6233862066078,87.4093990416824 71.58886772445479,87.41913608168667 71.54545256744791,87.43008120009044 71.43599111209078,87.4507017305787 71.38197937679851,87.4581689800902 71.33686774013366,87.46560610039744 71.22700741518987,87.49935782852545 70.91434073627892,87.70006455353351 70.8706165837346,87.73783390841017 70.78254258407758,87.81519731813145 70.65265489736576,87.93093112612758 70.61784025882555,87.97049042967242 70.55259769124923,88.03321310011702 70.44871099472584,88.13186655918983 70.38217424085418,88.18852572716546 70.35110521027474,88.20987209758836 70.31305082627252,88.23366817778928 70.29212044430464,88.2464833611552 70.22295765633072,88.28130912695947 70.17155911599048,88.30636601166904 70.01478710558288,88.37365599566137 69.9709807824805,88.38958578557549 69.89605492814171,88.41351214034934 69.78865800806959,88.43833449658905 69.70650028863135,88.45436032334356 69.66962625046766,88.44762319348244 68.94296033098233,88.12504383499706 68.5956810161516,87.95708721324601 68.09721300918214,87.65296541648321 68.03196102622914,87.61208299575645 67.99691699488002,87.55639960316451 67.9663298603893,87.44656324463321 67.92006270024481,87.38326452433556 67.89346169378842,87.35841392196642 67.86592428534307,87.34033639907713 67.84464382255507,87.33862023272302 67.80718774293281,87.33900198344308 67.33259113917403,87.41666000885408 67.31862984770515,87.4233825876788 67.29964331301109,87.44529302474851 67.27686837319042,87.47389265885317 67.24652261471485,87.51708013493732 67.22821398712925,87.54930297710962 67.16123642244912,87.70046513500631 67.12696017225525,87.80294294882746 66.94247014936234,88.28023577403792 66.54625655500702,89.04494067054567 66.29128387954191,89.51305093583453 66.25520672460507,89.55322549143722 66.19888907801507,89.61895765858972 66.04403523658324,89.84401254723929 66.03837060370272,89.85798838974519 66.03273336100578,89.8792448861195 66.02096414037538,89.95694827652648 66.01173707139874,90.0340388115171 66.00742226112962,90.06803071734072 65.98697035147448,90.19976655686696 65.9756847388208,90.2392460864946 65.95995421251011,90.27995389478451 65.9448202786938,90.31095359395488 65.91514386789402,90.36142001202005 65.90123992462675,90.38209960259792 65.8796975431847,90.39977312024024 65.77915416126433,90.4792489980715 65.76056136049534,90.48888965885742 65.74814504671606,90.49356653315047 65.74043385335986,90.49259503748375 65.72967806961742,90.4818546607217 65.52174889488717,90.22008750719385 65.45984193842517,90.1269144820012 65.43918032265604,90.08951677771321 65.40209743432237,90.03625912848563 65.3864328156484,90.0149743859819 65.3575062111945,89.99567183701521 65.33797872032454,89.98747292715524 64.83253391936499,89.88726747165643 64.78102325045107,89.88320875962815 64.72951514936672,89.87915158829794 64.67930294646571,89.8817630713632 64.14292948963285,89.92378304076024 63.99041750912232,89.93830155133064 63.718462062273,89.97025134758422 63.670810841781524,89.97710231790641 63.65303546688315,89.98323515178447 63.61941230144129,90.00034802655355 63.536976400427626,90.05101387941204 63.492591459640195,90.07908882026277 63.43871068367739,90.11690610796559 63.39878777540991,90.14799824901411 63.12384080666326,90.3807925771499 63.07193640382184,90.43559092435078 63.02764048113961,90.48490096299291 62.98256821786946,90.53492828213578 62.93838271187535,90.5836819576204 62.86630800473262,90.63062531298658 62.78387809531964,90.67511211102824 62.55269893222469,90.77730061600687 62.538717098116905,90.77796054830598 62.50437237245674,90.77384174905661 62.4611112852478,90.76550914085017 62.42037437488569,90.75291907057621 62.37327010217567,90.73732104429247 62.331251844663576,90.72231053750319 62.303234252017496,90.71088711797293 62.28479124133132,90.7091358579429 61.94977930614105,90.70917951105211 61.420002604465004,90.75582927786006 61.35892591302143,90.77011154807442 61.29225734387874,90.81116258963492 61.27577786716371,90.82275274692344 61.26692056570455,90.83309956094726 61.256840977182584,90.85498004000138 61.25247053059984,90.87441252116363 61.24427316143736,90.89021922642807 61.235427843182,90.90360104427158 61.22087423893629,90.91943000406293 61.20377249142884,90.9346632273039 61.194651559427626,90.94051616771674 61.15355172909759,90.96123598763026 60.94269950793387,91.02537182049406 60.87324741111742,91.04464150123702 60.783685781974846,91.05610258227337 60.65415074391028,91.06091572274246 60.5899755376524,91.06053311607901 60.484912775010464,91.04412451147238 60.39563788687841,91.02930316815635 60.37145149652474,91.03060420200063 60.33450299129166,91.03833936177051 60.278721165216005,91.06656751647519 60.257667527409794,91.0853349296792 60.24502695647829,91.10226720040771 60.221309623063114,91.16167035147431 60.216196217679155,91.19099839334318 60.21101519277047,91.33501359571794 60.19509807081912,91.48252601130436 60.19102463656514,91.50017299470404 60.17539425562431,91.5274810103411 60.041420295508274,91.70426668742373 59.48439977394207,92.27879895334564 59.46335811933967,92.2986183208883 59.437033582575566,92.30519196557542 59.399321575902356,92.31013503824009 58.631340128369885,92.33330200010148 58.58430689895571,92.33469718771131 58.52771449455899,92.3300613986973 58.494633997181026,92.32412200800944 58.45322688320155,92.3030461156757 58.40669694845657,92.27288866473059 58.391576709734494,92.26261648896424 58.361830967526856,92.25464851261128 58.32913564464129,92.25265998509317 58.23941994570078,92.26869539841303 57.84776596140328,92.36063911781135 57.69606627110182,92.43096855652837 57.666900002520784,92.44806944809122 57.6434505793652,92.4645429332013 57.64030498766752,92.47183557027594 57.63908184466558,92.48336769460754 57.64105137024228,92.49792215479725 57.64810519913135,92.51245692829022 57.65770717127972,92.52819344620282 57.67046671832958,92.53906563823588 57.70743063054489,92.56137152111927 57.73608247719206,92.57278723715963 57.75650614071717,92.59212299672679 57.77311828864479,92.61208102708697 57.781483422696994,92.63571019834033 57.78093818680354,92.65694871990529 57.77466412227839,92.67638890455744 57.76146034064408,92.71041607524566 57.756165475276156,92.72118469813712 57.722391663809915,92.77773687319758 57.63771918290394,92.896495584882 57.51754474097018,93.04870781404188 57.50425964472178,93.06332150550928 57.50276259985712,93.06476103098242 57.35312402106712,93.20332986602149 57.21497562538809,93.30345297977232 57.0816675891743,93.37833175722771 56.71470072207255,93.63369902256251 56.20911383452129,94.30976071710792 56.11385761448016,94.47698636326521 55.77088968614499,95.12389634026538 55.75324527057365,95.16041088223773 55.7400312176211,95.19494477137054 55.73192457845183,95.22478894706006 55.725659929303355,95.25210038647067 55.72136394978757,95.27881163842588 55.7507698824982,95.76100919004081 55.75275738288425,95.7841770078462 55.75862915404921,95.81503205259531 55.80435022235625,95.95735146006743 55.85134151054859,96.09134853065254 55.859038152869,96.10943118920156 55.86230871228816,96.12524217418296 55.864268822488185,96.14164632788459 55.86119341814478,96.16892438550545 55.85691541343836,96.2016265559363 55.846276037987145,96.23999849490924 55.82933606376874,96.28925888883904 55.81612714647775,96.32437310754185 55.80536537113218,96.33897892433066 55.79339500382048,96.35417705389571 55.78071249166959,96.36455194286026 55.749632333827904,96.37685955183882 55.7198087007773,96.38857399209715 55.70073058014847,96.38858169558705 55.660032187234634,96.38746468955628 55.21230278830628,96.4531668986932 54.50214972732269,96.64467651274265 54.433426038271655,96.67428530402013 54.42959398003281,96.67695499123101 54.36246405744275,96.73118927178446 54.34723083420056,96.74410460051902 54.268114281375006,96.82088100431189 54.24030896267004,96.84938648465163 54.22007703044713,96.87626738457264 54.0169017649089,97.07242134706878 53.696446857740334,97.3266279532636 53.64955828274742,97.36325890352657 53.596981964400634,97.39801790575255 53.56400845993722,97.41711057741718 53.52660716068701,97.43837563322477 53.1138481819848,97.66090874166899 52.73017501318868,97.84275150306662 52.650827355666216,97.86426991809621 52.607010761243146,97.8776816939559 52.576591391644584,97.8899850232175 52.5487056142671,97.90709190638347 52.53030112102919,97.92120042010377 52.210811717926056,98.2434278146966 52.20258952640712,98.25858759800145 52.19065853248768,98.28112886529686 52.12890735771162,98.40989869003513 52.1220418363512,98.43296636247186 52.11262988361947,98.46765517734538 52.10833732787725,98.49861807095306 52.10973936303359,98.52353030124075 52.11486560756778,98.54221896765962 52.120666335439324,98.55800256245499 52.130913688848594,98.57315960674099 52.153352242945786,98.61427227622005 52.15914697921421,98.62947639738881 52.181114764484924,98.70827539524366 52.19983253297782,98.77725329946067 52.22317581916284,98.87864577715342 52.230278436820846,98.91064693000611 52.2316479461296,98.92821687850744 52.231037658543414,98.9409764255579 52.22736822953762,98.96478363302168 52.20724414617326,99.01388482149382 52.15622307683675,99.11664680849654 52.107020031111,99.20605693567195 52.052076173544876,99.27601232715882 51.42662726337328,100 51.282856176033114,99.93049654658566 51.13517685149913,99.85910402626652 50.78563356659006,99.69013139979614 50.53100241250997,99.56704161492003 50.00562868326182,98.71001381612345 49.40095437337702,97.30228749311199 49.40099117893973,96.73551863308998 49.13385554891672,96.42817335378959 48.87524853812053,96.27651132499481 48.09608162330182,96.01306481067557 47.98828840147262,95.97662045605628 47.81217549583814,95.92002890760295 46.99013095641733,95.65589335891238 45.991487335555775,95.18781904324284 45.8065915955291,95.10116077383638 45.736783426294274,95.06844405236912 45.63286505986731,95.01974002159683 45.235117615084626,94.91486471054075 45.15468290954882,94.8936570029354 44.97615881158518,94.96724672975336 44.97492026160346,94.9569968085127 44.97486633717539,94.95655514176025 44.960921308627874,94.84113632090528 44.865209726740055,94.72507040690202 44.33229684874299,94.49113596226518 44.1659348493957,94.44919816342681 43.344734270085105,94.24219939908363 41.30811814475932,93.72893127619116 39.96413135285701,93.39029784482247 39.58556816567371,93.3251648379927 39.30866964615973,93.27752645665207 38.178845008232564,93.15324006301606 37.08070653601571,93.032477588023 36.90148142047512,93.0182201401651 36.138669014645096,92.84575954467107 35.197925679572265,92.48722286331424 33.00517265378154,91.65165613134563 32.85512579002823,91.59448682115188 32.659470842487984,91.51994186159098 32.21951512077658,91.352321625564 32.136050375892744,91.31182865904721 32.161939237507504,91.26396687650018 32.16530566257899,91.25774245668735 32.21300395995384,91.16577733870551 32.40757870702541,90.79735622390554 32.84022210496482,90.2026527977371 32.8468222838952,90.16160945966652 32.856680183094504,90.10030337541404 32.824631097416265,90.09035389027875 32.434342342712405,89.96918655409596 32.4106198736381,89.98316239660245 32.383108999434775,89.98361347873158 32.21295089146734,89.87817067725516 32.11881167745515,89.96607605607602 31.91511086272081,90.15629062788491 31.79621177633147,90.26732017140195 31.772176887943747,90.28195252243341 31.67991989329105,90.37090814370674 31.56586886986049,90.48087974128202 31.411713478178484,90.57171073436652 31.063074069413236,90.52469719164849 31.03432036551306,90.52082062435825 30.998761912227643,90.47289550200588 30.73622697754272,90.11906308512815 30.682495991660293,90.01629253869275 30.6356262474183,89.84616353279874 30.35534418396747,88.8288252539164 30.30183659929083,88.63461770652667 30.206986952325014,88.62852339009808 29.934938207652934,88.77886298646565 29.886399373941426,88.71580050652341 29.821098602221927,88.60353669274099 29.38826775269543,87.85944975889193 29.054975407636473,87.4955343297211 27.47279927685753,86.12483782655924 26.013431325603303,85.15487943413521 24.304949630901135,84.28118641892574 24.139132011503293,84.19639667378394 23.93747604535662,84.11561188742982 23.877223627328352,84.0914742858451 19.92378663572127,82.50804334216247 16.79633837034752,81.66338991592335 14.780424090127129,81.32324660053976 14.763829917008866,81.32044766588804 14.749899439499574,81.31844818229574 14.400440037036583,81.26831472618109 11.918913134128486,80.91242376562268 6.756507561582657,80.41726654740864 6.319441504515561,80.32836827433754 5.8666697434966695,80.23628161240474 5.634236623442632,80.14417697566259 5.601528461406832,80.13121628193203 5.518155302457765,80.09817943766326 5.179214587437201,79.9638742274835 4.267227524096537,79.72835885553772 3.3808845225819324,79.33904159649998 3.347923857268752,79.32456502715263 2.235997850075873,78.48156699529122 1.7701464192050183,77.03418567427188 1.689429252373806,76.78341482455824 1.661385125480828,76.47595399290998 1.6855201592359959,76.27099237366518 1.7980142217707205,75.8500711194746 1.8379046041930551,75.61933790284967 1.831604005423438,75.5477776176402 1.7549808154851239,75.43100298256888 1.623988961892167,75.2585911758444 1.4944727545785226,75.03586616490807 1.4891342361007802,75.02668531687263 1.423583528931027,74.91396100558501 1.104560614934386,73.54397065566104 0.8690195646893645,72.9323212636711 0.03738075660886773,71.33976596421186 0,70.61782142807219 0.0869364509843072,70.31709173468074 0.5194642965740552,68.82100809477589 0.9209128402661177,67.43256531878968 1.1334101844893116,66.93370272194933 1.313687254368542,66.77188749350901 1.8018685345364722,65.80574232856988 1.8762431613762425,65.65855688333085 1.94712382759106,65.52405908590427 2.8121341537751734,63.882790340296076 3.054289078044801,63.250219981712505 3.271626781733228,62.68250359243686 3.970510492982067,60.85708035371643 4.439373988391589,58.85243627917114 4.55370233745843,57.89373867704675 4.353695774086356,56.11889398496637 4.2500923947999425,55.943987959411245 4.241413985492749,55.92933763356982 4.213363866999086,55.881983425410766 4.197983421508514,55.76973501860813 4.162341085777013,55.509620691628434 4.17487295190596,55.344765152520644 4.189228833243918,55.155908962758886 4.209044777014837,54.89523228101916 4.232800627878287,54.853303041613486 4.313936350993482,54.7100977328063 4.3329545555887,54.67653020368049 4.589275341779645,54.224132489891154 4.764810485675521,53.73826396857111 4.935649924522558,52.126641675746505 4.87675674448723,50.86675730649902 4.5707570080824995,49.4658263174943 4.442507596880607,48.95702108306516 4.035006677983618,48.302081501792856 4.011768672827594,48.26473412697192 3.7321200074289913,48.06358402332523 3.4309263927612133,47.98698479979938 3.271263861765301,48.030888700440876 3.2159005919760664,48.30715981350211 3.099219254725685,48.27012400204938 3.130560475279859,47.91114907771366 3.4060347051106055,47.19080686746643 4.217725754151591,45.86997847798978 4.258733998546864,45.18694255728444 4.138939595446378,44.28074423860726 3.876332761524045,43.37749036494585 3.7880576151881376,43.23234120886242 3.7289632884714985,43.13517366739021 3.924562599695685,42.55390427160717 4.051525528088475,42.45421683300508 3.989502163335254,41.99837651518868 3.621312153231567,41.12964540339723 4.8210288428420744,40.71155732159091 4.8528262811845,40.7003393284571 4.899766212778347,40.67868567438293 4.933701797531202,40.66193571958117 5.230500999201326,40.40427623803924 5.276595258796963,40.36261747672273 5.304670199647094,40.33485923489993 5.326904183291852,40.29954301357426 5.363385343474449,40.22550648434412 5.423355300204887,40.08440508421422 5.467596442515055,39.97651342890315 5.512587391171116,39.872758547651394 5.564816196529767,39.7682718348619 5.8787881890031874,39.13351197326879 6.374607051401907,39.25779751096142 8.41776943122757,39.24850881406804 8.472512142112379,39.242699526764426 8.515249392010775,39.23980558240438 8.588270772463149,39.265427389703525 8.949857179865337,39.53404979326991 9.002390701043865,39.580497557454365 9.907424936809333,39.80534273999055 10.854608389411489,39.93594685126094 11.19887221593,39.65499372824631 11.211426336583425,39.646532728541786 11.218380020105052,39.63853565011602 11.22265032132036,39.63175743497646 11.226883816975397,39.62221024320014 11.230745833229829,39.596300838945865 11.225342263059355,39.556440414541555 11.235378198469066,39.51954497779314 11.276249491934195,39.43069891726452 11.33036137259147,39.37741986945401 11.381324237782366,39.33723675441864 11.452473670198353,39.31360073561815 11.732306363408046,39.23699723237598 12.206472427676603,39.06153569960672 12.350163056346675,38.980719243350244 12.48024761002225,38.8663095796681 12.603737120429,38.79348335429088 12.85012297251924,38.667242842058556 12.876134234028347,38.65675325668894 12.901447901734064,38.65040729292455 13.769477995947957,38.46537802574068 13.826049001761763,38.4663640724432 13.879409364187584,38.47504076986422 13.93569191710287,38.499212609182095 13.998269933126222,38.54763760243254 14.600098231478958,39.16123854518862 14.626284961368913,39.20164848520394 14.642038598148085,39.28376340747454 14.641248562463497,39.47115679010479 14.638022512095718,39.55608605400752 14.66045421864823,39.73284862062106 14.693610039037171,39.839629261504484 14.748680576212763,39.95489315661874 14.765860214560742,39.98056974428995 14.774839915916688,39.9894672750872 14.974746333921322,40.10051051369726 15.067226729779806,40.14234303150783 15.124498753172997,40.150205726832404 15.173189944794442,40.13461300739767 15.217372027014997,40.106651051065214 15.291810849605934,40.06590301343904 15.338763620347581,40.04204958503588 15.370745086503529,40.036491089125306 15.39189544590606,40.03364935730715 15.427783437370259,40.03580975824327 15.456680939750127,40.043746064693856 15.784365144186173,40.20391445818914 16.315438599992,40.52525783452173 16.362018179447478,40.55576108656759 16.38242130033368,40.57881249608114 16.60624534249081,41.075149204187895 16.625638450260187,41.136238734780484 16.635144556756238,41.176545961596986 16.633003842518683,41.208811600935114 16.44045939299655,41.64967547850608 16.380752210861733,41.76238866253087 16.443456050555426,41.81611023303723 16.795787142850948,42.10006857304279 16.81771726661739,42.1148241799126 16.837841349981744,42.116138052906514 16.866495764458477,42.10492348354625 17.022171311473613,42.04145528647148 17.428484181045814,41.853532074926356 17.828007708214994,41.81143592657373 17.95201763215873,41.841155990482726 17.973019057422448,41.841046429738 17.993268964454707,41.83611191650601 18.13506881433261,41.78850777289853 18.206293569762003,41.74468861064529 18.40638743935372,41.54969701917591 18.6205102199366,41.33948675550135 18.749110567897752,41.157340305414074 18.761344565751504,41.14347659148247 18.774310395141796,41.13098837846395 18.793796800733936,41.11915752991378 18.819806350355048,41.10798233394639 18.843587879521397,41.09966085300279 19.01411318717188,41.061472085899375 19.103008892412216,41.043850780799545 19.191979064721956,41.03192577848444 19.326357030083745,41.03568251370988 19.375615712125555,41.03749882543204 19.433594744698812,41.04479146250669 19.455357103575526,41.0508900586516 19.484406963865332,41.06523224489837 19.50839905508724,41.08166978038853 19.552799402852028,41.120774406842614 19.85829841241469,41.355205298603984 20.239984080822328,41.588700644317946 20.246366850150032,41.59197633939866 21.0213019812017,41.95999687272584 21.056184239264205,41.96787069531326 21.092112460064666,41.97262717233484 21.132306702362882,41.97111814426456 21.18984834789881,41.966299183380414 21.33477581466261,41.953204106549265 21.381907477558663,41.941776407302065 21.388503376773915,41.935668395780475 21.46354050374237,41.881435827113194 21.477905800459435,41.87247410056782 21.558767621711905,41.83458576956916 21.92526200810162,41.68322760065271 21.95937306123532,41.67350665238294 22.819838328397402,41.60439350912194 22.86876062471818,41.605374420164736 22.973843074057466,41.62071378037748 23.012648976291143,41.637865172596044 23.146794981014466,41.74274219553889 23.16945950414944,41.75119206797996 23.208546155792956,41.74224146869743 23.24348661800108,41.73119723205768 23.279829971309532,41.70723253102302 23.354720731971163,41.614705914224544 23.492536165702717,41.428736821276324 23.53417267249353,41.37027674855834 23.556937340993514,41.32340871620434 23.848910734236636,40.44698096209188 23.93155291759073,39.94415021202653 23.823234146562992,39.67627162320414 23.754978658508875,39.31357077760196 23.765678805932836,38.92043344353404 23.97676469962302,38.5565411248323 23.991137699828766,38.533072014979375 23.999725379145193,38.52468633828704 24.018115321344872,38.517740358256525 24.523518181082604,38.363236597643606 24.632752811460403,38.3433170847329 24.72771287511433,38.331336446102355 24.82224924682516,38.32868130992789 25.079728124327737,38.31739655321577 25.143977797652592,38.31303466606388 25.19662087957524,38.30228059420882 25.28636910436333,38.28340447620347 25.339326317484964,38.25948685205159 25.410236085771373,38.194453990589864 25.420272021183518,38.168227887307644 25.423070955834635,38.132248309909905 25.420450913335486,38.050145370845534 25.42282444415794,37.95421723529844 25.429147297454467,37.918301853649425 25.4369740431579,37.89273225889277 25.449174659222507,37.87197049775681 25.470088778269012,37.855306137286696 25.782220492607202,37.71299186547432 26.09958972411169,37.56375044438417 26.156756466475887,37.53644670846406 26.601983943084317,37.24493124489779 26.71836227640038,37.08990107914416 26.728432449543238,37.073581663831405 26.83725280335461,36.9672529610205 27.171560297191935,36.81553871968323 27.277686141437183,36.783499049381064 27.384960661614958,36.75636650212424 27.51265713343228,36.71087397068333 27.576978705996986,36.68268604531492 27.63877781360042,36.6465327114231 27.87856434270428,36.420292341277694 27.93490595570918,36.364412937665385 27.944945314894884,36.345733686623184 27.952073610850924,36.32430685752837 27.955506799503134,36.28909762911726 27.965035160523662,36.17519297199352 27.966291685317174,36.13930412458715 28.232105738853935,35.840919715889335 28.96891373072197,35.56367111555765 29.4352119640044,35.306181110792835 29.446001129535993,35.29163863380997 29.463327134193225,35.28051393849769 29.48574600159307,35.27350547460522 29.52264571805965,35.26504618678687 29.56319004117556,35.26139986824955 29.596525609660468,35.263999368108564 29.726546823531304,35.283817023764435 30.28242209293854,35.454307237738384 30.481168707745976,35.542923905458096 30.691273690393363,35.63291693003306 30.711382366775492,35.63268668128077 30.73578702267583,35.62826402215308 30.759053273964312,35.619711436513796 30.793089860028605,35.6032687653633 30.80323963589999,35.58917137890584 30.811764831353248,35.57561066890916 30.818620937334558,35.55896171541884 30.822569403864634,35.527330330079366 30.823787411207448,35.49469406728402 30.827277948058843,35.46979895586229 30.83292888585001,35.44384333066863 30.84294085484725,35.4188728962347 30.914506275715226,35.31811381659783 30.940227372440255,35.28882086840489 31.34217493108639,34.87772841134203 31.36796878299283,34.85413090999102 31.92121973018579,34.49982430051507 31.974117883217808,34.4702215008407 32.08963428161187,34.40572617178315 32.11835203589334,34.39615758142453 32.18349017838466,34.385782692459976 32.32383492461973,34.37715735163806 32.42033483030414,34.37903785910895 32.47458965349711,34.369738034952114 32.511955859070184,34.358437015316824 32.76972661324484,34.28041007833539 32.933682555924534,34.220207305020665 32.935587885752504,34.219187020585 33.17104505355144,34.084205615183535 33.18909090653898,34.07169857141166 33.20567737616612,34.05712956018555 33.21355547847049,34.03984121703623 33.44193313908233,33.483588476627105 33.560549764176265,33.10267658097843 33.604944976281935,32.8717422176734 33.61494496207294,32.71576537860951 33.642656982957575,32.671435218195356 33.66578970708704,32.65201215240917 33.738564575865155,32.60302566034209 33.8484634182572,32.56656247496885 33.941623433112156,32.53909268604456 34.047008886385754,32.5327150523778 34.083983069919306,32.53332961968033 34.15052410350853,32.550695853671996 34.210115733293684,32.577462057187944 34.74015948928778,32.53415303715285 35.26682654888971,32.307582272886485 35.89588326015037,32.17473387823511 35.8932726330279,31.581228772712755 35.89689498515275,31.232127154556746 35.90114046401402,31.16636588533144 35.94008674095384,31.021902339845784 35.95150930454009,30.988726832760104 35.962970385577044,30.963141831023655 35.97443146661157,30.937556829286603 36.23056052150031,30.46616658920069 36.246157520651984,30.452526276475478 36.27581595664242,30.433031311450662 36.32602644765543,30.400947132095887 36.50497252567417,30.323767579000055 36.56099572776496,30.325722553539745 37.32710265942662,30.370302649402934 37.717244191879665,30.44419195638225 37.78034604521599,30.45918808332442 37.88458624632819,30.479071646615804 37.977140253314516,30.489420857281115 38.02716414868445,30.48989248204977 38.07765538910486,30.484145678608108 38.14813033818593,30.467816847919284 38.2326110877897,30.44097446544776 38.27693611254352,30.42028032383348 38.305406499209155,30.392515234464174 38.32526352825547,30.37157886089136 38.34508717551507,30.34805411472238 38.381339798832755,30.290167524027883 39.48676234868915,29.859860851348824 39.81467081027741,29.732940720121857 39.85482910295692,29.72679419115078 39.88204125294105,29.729078703868034 39.90222610828058,29.73454818167402 40.00753452665521,29.764955568068167 40.14068335741195,29.804371757889857 40.284997112818445,29.867484738487814 40.405129613527954,29.909636523156493 40.644340092781206,29.952529554738387 40.66011769597285,29.95338806588683 40.673152000826995,29.952206864107332 40.683390794806016,29.94484318373744 40.76345658877078,29.691766422723628 40.783321321310645,29.450754182785236 40.780449631475676,29.438358411645474 40.78023307781701,29.420755081354393 40.80389734274569,29.135167025269755 40.81106843586999,29.09935692464913 41.0317434625583,28.564045693472533 41.04142674932076,28.555652313290302 41.054493580022495,28.557059484106368 41.91960747535004,28.827030854343196 42.378722632304374,28.977782159447017 42.431407655451274,28.997306226544033 42.490267453697456,29.028841746231798 42.670060059658404,29.14749603283122 42.71502533001643,29.17858303822002 42.73809300245316,29.19748654641139 42.74593857890995,29.216558675436495 42.75837714721614,29.29979145968186 42.78468285322688,29.36112065440342 42.79953518169179,29.37877362940683 42.81195149547107,29.390055818289383 42.83276204537658,29.398936230220063 43.44446364991085,29.439199803927345 43.88946858125749,29.447760948999917 44.64981073466874,29.617101631097345 45.38005449722511,29.694334252679063 45.88832219925069,29.68639880217247 46.22972460725491,29.615578051990656 46.44009921204747,29.451003262290882 46.66815161419808,29.452555087527596 47.26458233398346,29.4731876012227 47.2918835020728,29.482727089508504 47.3399866606374,29.503947636263497 47.38773460272275,29.540707833967936 47.4304530218678,29.611183638993 47.86556068062043,29.920915288265487 48.35957435856106,30.19453297703964 48.4123090264209,30.22222873499988 49.41767009044563,30.285417038610024 49.76695060075422,29.896853009692947 49.774838974379264,29.84124836388553 49.82327595083533,29.78801040135467 50.05686031465389,29.58920387051423 50.09852763540429,29.57269700361439 50.13872016581694,29.569152542332503 50.200110132515505,29.568789622365184 50.25830571874744,29.575877688986786 50.26245276412683,29.57680981126064 50.38587979067041,29.612435884067743 50.411394605055,29.62147122173914 50.474522136689366,29.641220401929328 50.47995224110187,29.642761099903197 50.693583710219364,29.682737076655354 50.76604872751847,29.695413597203736 50.83785894817515,29.698775742559487 51.115791447218434,29.70663159033755 51.286006047443486,29.699406572785193 51.29321137830093,29.697986562819505 51.328259689367606,29.696300354482204 51.355072969767534,29.695027566767333 51.38075469309786,29.69763990577598 51.40336614774635,29.702475129582698 51.42474247618422,29.7081517456719 52.43469824394393,30.022285511431935 52.67000818949448,30.14083879671992 52.681455575437205,30.143303913477133 52.6917534295034,30.140603412307286 52.87810769694403,29.992039898325615 52.912438727512395,29.952830846786533 52.93646420052101,29.91580445070987 52.95032192284889,29.892351603780128 52.95604304799191,29.870540456135085 52.9943961562109,29.575471971853645 52.995758817974966,29.461531365109984 53.23261288527112,29.29202377406561 53.554391936753056,28.94486771507261 53.53646677177431,28.76742895323798 53.56131138254154,28.701198627073577 53.59894464243022,28.6375600972783 53.786768564549476,28.352852806868405 53.80662987331577,28.3261499431578 53.84224995451793,28.294602440263805 53.91858126778661,28.247035102218415 54.04801872831329,28.197817505455042 54.0747874996594,28.18619721896164 54.10586337778596,28.168129111449023 54.13259106385181,28.150078122802366 54.16724649693497,28.122334432016576 54.227771960881974,28.04618115495953 54.26159113734359,27.993597989067453 54.379380065248675,27.76056485274547 54.50153687190694,27.513995828782665 54.695947277862345,27.160927769288445 54.71477546304335,27.138910339304186 54.743351130733124,27.111075918525806 54.930352491325074,26.967271449395884 54.94912589613159,26.955162419267868 54.98992614630087,26.931831972232473 55.032387782448545,26.925142775197504 55.10028291836916,26.91798280933727 55.290653271862155,26.906206741159764 56.03838823613349,26.869202599609405 56.58813923109595,26.84380590540282 56.76280559252028,26.8442159022523 57.247825018069165,26.54901560269984 57.55502992266647,26.34101966439068 57.59178584065336,26.328898651055816 57.62797255633432,26.31840393002586 57.73879924128509,26.3089945451243 57.752579928714006,26.311701037897876 57.77511777223708,26.328863557379282 57.79185916760616,26.3460483313876 57.813000111632014,26.374947545653637 57.84218949068396,26.42175822980541 57.87210642155489,26.469254524554948 57.97476312752922,26.580640140492193 58.00749097625994,26.608115065076813 58.03801905066105,26.62938696843091 58.09176287569371,26.65746790088416 58.1563977235134,26.6903352683758 58.38766162499357,26.795362937343025 58.61323435935117,26.888645352091725 58.63293731860198,26.894682320318076 58.699250671267855,26.913747601796672 58.731015583765135,26.92260747108783 58.81613572302911,26.92031953459702 58.85516245864145,26.91048132209263 59.45073381133439,26.895041816511835 59.49550050284066,26.974925294551074 59.53346929251124,27.03542165642405 59.572592749717465,27.065695515659787 59.620819164117975,27.099230518939837 59.76272343908088,27.17780697153167 60.12983324871833,27.354219457327513 60.19410688845566,27.382310661100828 60.90975339365649,27.49043684488115 60.922801393604864,27.491766980798246 60.94958899570433,27.486143433194933 61.406561726530676,27.381016474803047 61.71379316537002,27.561914103588528 61.758285099072005,27.620905717107558 61.79746248070872,27.655977994587314 61.826930041338514,27.678685314886895 62.39477995777257,27.80680804647688 62.50908006070938,27.79954279958826 62.6366515648028,27.77182906681806 63.023706565647764,27.585069082243685 63.04867443225091,27.567065170479797 63.070919543160336,27.531347511737934 63.08164708077276,27.503030338928053 63.11298658943894,27.245322068617178 63.11853481403067,27.18595469598181 63.12183875524141,27.109343489249124 63.162202474317354,26.890705607659797 63.184199361662095,26.833412185684914 63.19702224851669,26.810261486746704 63.21938547960291,26.784611433317526 63.52625143064477,26.605440242206214 63.56098218674133,26.592886977494963 63.63916747323703,26.57464939320583 63.69925811797626,26.56200283067304 63.74052999291358,26.55425568769631 63.781099994327526,26.552033658841015 63.843411811979266,26.550417637855567 63.913711292681924,26.55291442451576 63.94979101544589,26.555281963735094 64.03530146486382,26.583298700440217 64.11261454511686,26.60694499056016 64.20043004988851,26.630372159190653 64.20388891683876,26.631181881570157 64.22491516446138,26.63386355198726 64.55256513116672,26.662309116294608 64.5837343071136,26.66495312520562 64.62430773230354,26.663420986665646 64.65617963771537,26.660541593341396 65.30452845543397,26.524389257479886 66.07147421154916,26.528015033377688 66.20108286073912,26.545369284162515 66.28130101261627,26.55892143472591 66.42256589792139,26.58286987283739 66.49236550772353,26.60995619915483 66.54826716586155,26.64553519507977 66.61425098035107,26.68985337228769 66.65203403032014,26.715248354607496 66.77047689891879,26.79624199113099 66.80827792369963,26.825778027226466 66.8330061261732,26.848458813282797 66.86720876524166,26.884216701360927 66.89271502019358,26.92000797122881 67.53300513156785,26.130285563404968 67.71864297445173,25.981931755536678 67.87603126404863,25.835751187754138 67.90634364073263,25.805277893725084 67.92798359971499,25.780357104003492 67.95467191238859,25.74920504692257 67.97916815422369,25.713922207386045 67.99643681067687,25.68349599023915 68.01871530337544,25.637180041325724 68.03667470608491,25.597780114427216 68.04737998917041,25.557026941141316 68.17156195772144,25.079662216691617 68.18366927596328,25.027172348621086 68.2156995308906,24.882138744885506 68.21274139078001,24.86696886144988 68.1709045932543,24.73103992679416 68.1242959117248,24.63155620270172 68.06431054801457,24.39215570403304 68.03451944080912,23.987741316741694 68.13566198305344,22.921184585152595 68.16849853658427,22.797606912584637 68.20684993291769,22.656699811588325 68.25989445225896,22.50990296461648 68.27778024384546,22.482917639610474 68.29300405171097,22.468310966878267 68.30381461582303,22.452398124642038 68.30620526551327,22.447171734738582 68.32402857323659,22.225598823509557 68.32329845358561,22.202667246060187 68.3206090796786,22.165723876485615 68.26393964038293,21.663822680864552 68.23431629806963,21.50559128709961 68.23266775123903,21.502010876197797 68.19663424941201,21.44736146313453 68.16358713382319,21.42821486704063 68.11868006761078,21.388145592466323 68.10642638306211,21.35667940418763 68.10967982361592,21.31253583941656 68.12228016520872,21.264718565922134 68.14996565185133,21.222109707521817 68.21165947842577,21.14219113580665 68.32837847718285,21.056340020949527 68.53394182457934,20.91055746681023 68.61826422467004,20.875576775265237 68.77794901019044,20.512235684061285 68.7874748033814,20.469219396641044 68.87193757817582,20.18937814399746 69.1540547841052,19.948031230221773 69.19809477973405,19.911811132751666 69.22737660066232,19.898867557887673 69.38053139460662,19.838524409868636 69.40939637113891,19.829160389963068 69.52667344493968,19.791588757992344 69.63096671453837,19.768459457637046 69.89998713174799,19.695946507514208 69.98219363995518,19.65754632241124 70.05003827521644,19.622274610138167 70.07427003056792,19.60593122841233 70.0928003474713,19.58368526156134 70.10671798583279,19.5412193456955 70.13945952965531,19.460942133729354 70.23342327528665,19.30907039882121 70.5166027068729,18.860443115350936 70.53752880912565,18.828636261631225 70.57027634455372,18.79014962625322 71.19526047750439,18.08213471168067 71.22130512080264,18.059812565874708 71.27740107807485,18.037181424530093 71.35041304315055,18.015569711678975 71.41659971620696,17.9993923829567 72.66056097189876,17.70769117969074 72.77119250177134,17.69046703229016 72.85439276017155,17.68365629130423 73.10231503052114,17.681126978797675 73.34275721220901,17.681655095825164 73.43433801163879,17.69622068327772 73.86404381210895,17.767549007848114 74.2605664020017,17.839219709745084 74.3139421714073,17.852982422365255 74.42505559737104,17.878677840789813 74.53799475043178,17.899587680119982 74.58432268255144,17.89911776723811 74.65063261144377,17.89367482367537 74.77818870855738,17.878073544806746 74.85065971745719,17.86362864536176 75.35426937594063,17.713075063164474 75.42353744494356,17.69210701968869 75.49773917123447,17.66453109379324 75.53023848309785,17.651602925908435 75.93053578302782,17.445912042956657 75.97900014966993,17.418241963295667 76.04479993634594,17.366908474648774 76.29653029851947,17.167650861679203 76.40856728732194,16.40947681269214 76.41315171973623,16.371279486156048 76.44512805023307,15.98170544412276 76.63042094795837,14.992995045474515 76.6381115986781,14.95268097111151 76.6392551389515,14.91481575058254 76.63562337144997,14.86984705645278 76.57309842391311,14.625482942479307 76.55369675670862,14.557469686381896 76.50505349791212,14.469227921836353 76.50803902820876,14.470037644215855 76.51323118037725,14.471201727129392 76.52169988357288,14.469372576257612 76.54546172603945,14.459908410983386 76.71709890406218,14.370090854788048 76.84223268158198,14.304152405295724 76.89321608941178,14.271149798760112 76.92614508482382,14.247868140493658 77.25975926457286,14.008150086853654 77.29888785743822,13.97914473561584 77.44510351889667,13.837587973640465 77.46119268545775,13.820137857203928 77.46403099350113,13.813702875334334 77.4739667835434,13.729999322264314 77.44904599382363,13.628913272279439 77.63572637566949,13.127502532179776 77.87626099923611,12.681582597425857 78.10747354411777,12.344296420840227 78.34251472346716,12.14576978346502 78.62907598710468,11.661245093155088 79.05859604787332,10.82289226568437 79.08455338495438,10.771498861004472 79.0949308417491,10.642599788825345 79.09700650429636,10.571865488918565 79.08434795855794,10.478779085189625 79.0653357455634,10.402072868748618 79.04863115575704,10.364090383985026 79.0335442988241,10.330003297265012 79.01646052612844,10.28692110220926 79.02060157990228,10.242606348774899 79.02226981343023,10.237179668134734 79.08094130414776,10.171225811662616 79.12556248529121,10.128455179974464 79.16469878164767,10.099448972793262 79.47367120919637,10.033495116321143 79.49373623247354,10.03502040731522 79.71621473173195,10.079631317137997 80.21827170903713,10.166392299742066 80.35286109239847,10.18236403087862 80.41199051279224,10.183532564697172 80.77975426312327,10.023680014286445 80.83585450011303,9.999276214329496 80.8609918434939,9.988139535811595 80.92808667240925,9.957225430972864 81.29384323565931,9.728252033811245 82.10574142298229,9.573531719539043 82.5073063749656,9.63869040466806 82.6001633858838,9.653267975327461 82.66665135098653,9.662144792295903 82.71797542425735,9.667160791331876 83.16794397090757,9.68507482904717 83.17749629834543,9.685044015087584 83.25622596479059,9.664126472267517 83.32937488079887,9.609768079932332 83.420662091671,9.534991159731762 83.44669389582147,9.497430655024493 83.58114461636467,9.208390579535509 83.67838662490628,8.993425550726148 83.70512201446326,8.975277840484999 85.24770905486861,8.907386984282548 85.47064890757683,8.901308074833764 85.51695800894315,8.900779957806273 85.55714283586713,8.909922973146935 86.56271103817384,9.224932540111274 86.61804948560905,9.245254346381557 87.62688311167825,9.690814784941715 87.65095394968469,9.710711187382726 87.78800588197369,9.93782119594003 87.79434842196513,9.951624137895854 87.80546883756107,9.988916732344732 87.80978621565976,10.040736396796683 87.80647114718677,10.081901278818844 87.79773795750752,10.143386255224508 87.79211098612883,10.194189914957134 87.79057028815679,10.260094126716922 87.81089979791757,10.291046749005135 87.84287013681129,10.328507964287136 87.87068315900493,10.350274602879578 88.195289391268,10.59374853580224 88.48538313298363,10.778699056200969 88.53704188008993,10.806809946671024 89.5746334897793,11.313560061191819 90.23068494142142,11.577244527753262 90.5162259206239,11.631113320509833 90.57456787316265,11.640086174319272 90.63225074934871,11.646086336982309 90.87101185835839,11.659277964220488 90.96239065516772,11.653628053562604 92.18859451077051,11.727928213334792 92.56840052765065,11.890097802309137 92.60725521865571,11.906468403032326 92.70785081311857,11.929668917871542 92.87794301345171,11.931291786404106 93.30960378846034,11.87546202750412 93.33702564455847,11.862680225927354 93.35862794203412,11.832667429403498 93.37139519257266,11.796180277617783 93.38292731690547,11.76149659840399 93.39130015444879,11.664843478866862 93.41417695152488,11.54967887317727 93.45184701697626,11.427452735109322 93.4905912912932,11.377948397334208 93.4996035184943,11.369318776795954 94.01257548499896,11.028951204263194 94.30987883728471,10.932363992361578 95.68654297726567,10.575280702759597 96.00378895293181,10.622413221599036 96.08187323811607,10.655704281033168 96.48805343647325,10.901049306050044 96.56751579039894,10.963935461668047 96.67245444126097,11.027338607051304 96.74580450395057,11.056929423518834 96.76435536349285,11.059380845183645 96.80645921533659,11.058159414067884 96.97273305252268,11.043227311685772 97.39648747909935,10.957343842171566 98.49676152989464,10.502780591786381 98.52105576910687,10.490032171999369 98.54642678501419,10.457822168976687 98.62131668973183,10.327368703730068 98.68125840033467,10.21259954385416 98.69545593215958,10.179162974055988 98.71671756419421,10.127210638389622 98.78499273894812,10.026846148622436 98.83736191901048,9.958838884128753 98.87971998601715,9.913322386274762 98.94863883014638,9.889522882300884 98.97370769806096,9.886102532799516 99.22865726305515,9.872779775045633 99.28416604321208,9.875292824629009 99.55484699045854,9.903097287390581 99.82684266664413,9.934535229539856 99.87030233270482,9.943837621526859 99.91430124305342,9.94342505684721 99.96019350002375,9.941173925919106 100.01360607499205,9.926106755681698 100.3063061641126,9.801365856143596 100.3314323802288,9.780843587947928 100.38489288802207,9.698141488560221 100.60377899317608,8.948478255179298 100.61815541715538,8.890957152282285 100.60927500522288,8.836423291566861 100.54754779685929,8.738453731205043 100.49076366115794,8.676057859919759 100.45418663532546,8.637615048839036 100.41135865543386,8.557674051408894 100.26708084964851,7.876714649194197 100.28909057614348,7.150268022386994 100.39134926847518,6.562973641585056 100.39620417897864,6.549867266301775 100.94638828125844,5.117958147898269 100.9735251082316,5.047454952687175 101.00135011363392,5.003264311033941 101.76961402245936,4.634644617384033 102.18103173798526,4.446418401904588 102.25784323545223,4.429087261589451 102.30420112558991,4.4164484025471635 102.59686783291887,4.332014729825559 102.64944329532166,4.314089564847419 102.70270351237761,4.293526382561384 102.74835353739122,4.274960116036863 102.79330340076703,4.253759255978614 103.06702551462618,4.080424742356339 103.08706999526201,4.067195111235319 103.72401764797726,3.4731748990237756 104.11839609985647,2.8707132026157716 104.31725141946646,2.386026739018616 105.1204523667289,2.2234574245148555 105.54680714910494,1.9788928486159976 105.68789143037009,1.4883731313021478 105.90708824294467,0.7177974907608863 105.98727986057978,0.3919295980457789 106.01406403890567,0.2749289939378995 106.15855497457615,0.04604033516453468 106.17813211016149,0.026435809394993248 106.20697483216686,0.006466651771962656 106.27739585681987,0.0012436856420627185 106.41262976550054,0 106.47723465530221,0.017008449684080794 106.53961494842024,0.0662055038079326 106.59434139638125,0.11547274528363603 106.63173328025479,0.15397564358482252 106.6608944131767,0.19862164708352617 107.0029901352692,0.4940025506765644 107.30005724720137,0.6558931021290657 109.14087633839277,1.213768711070761 110.06810261657874,1.453742691763528 110.2199734955435,1.4699225883147546 110.30377804992679,1.4893473659877197 110.44304173975162,1.5532178564226822 110.78256449622835,1.755956590868797 110.9896308800926,1.9394682705490929 110.99970790078257,1.948875943563873 111.11576183158141,2.0064047499513906 111.14585851054831,2.015666912602131 111.46928696480728,2.11349438637286 111.49361287392065,2.110836682368226 111.52756300971173,2.0948964499459706 111.69998423181107,1.9912280189692584 112.08017456724205,1.824341326366203 112.62145600306731,1.6892546399357418 112.68750658113514,1.6803494056492023 112.7943950708765,1.7307173902330968 112.92023756946436,1.8004622196631892 114.13420057966871,2.566093246841683 114.22787330457199,2.6388595561871178 114.4161448850468,2.793387283212511Z" class="mapstyle" stroke="blue" fill="none" stroke-width="0.3" id="1071"/>
        </svg>
    