
        <svg xmlns="http://www.w3.org/2000/svg" viewBox="0 0 200 100">
            <path d="M75.61617033208317,33.137005416949044 75.68272686311373,33.09904217695634 75.78910531962784,33.04853298867069 76.17462558321992,33.21386946395265 76.33465275449795,33.36476125681867 76.65696197791644,33.922148067735094 76.85400337970454,34.315262552663434 76.89864258317594,34.68703111815678 76.87751478574026,34.849943936209606 76.95663514391306,34.97489351427023 77.16350848420115,35.065024384895 77.49748187091589,35.15938896776385 78.44012719902318,35.18294471335359 78.78033029306035,35.152780943923716 78.83376875252014,35.106885214706644 78.9073316482208,34.7602886430584 79.14802963175242,34.60926025576006 79.72212458779603,34.96064049315193 80.58137007562411,36.646334502000116 80.44209381557337,37.00310557096138 80.13601859011683,37.56512371979923 79.61235415540645,37.83111312790906 79.32621170489365,37.75529177557623 78.97943705987366,37.76551204275158 78.4126309543703,37.96017984809627 78.34005568647407,38.86203207145707 78.41271534255341,39.07314269976001 78.93903514441813,39.70322349415061 79.17168692922345,39.74721619832028 79.7652533858193,40.06523664263037 80.19866251309018,40.4660497613944 80.33414273520225,40.657401397199415 80.32530056996865,40.73542899991622 80.09583837242783,40.966747022334324 79.97468626261418,41.0074514479738 79.36629251616179,40.85539896001118 78.90597428574851,40.578377584827805 78.45460406337354,40.424613733115415 77.71104047168669,40.36813086267227 77.25995488064179,40.54219436337861 77.06738104648798,40.71044223098187 76.53828358611716,42.11966410299155 76.96431947466668,42.46135757816305 77.53720510513527,42.422895875766386 77.74286411376974,42.374444900966935 78.05756052184599,42.34312830313566 78.30218613166849,42.47836751831902 78.30493089308655,42.72742207745351 78.2464155547037,42.78897896620208 77.98169125418988,42.801956867568734 77.65078802400653,42.84893390977786 76.89780799834735,43.8481579389784 76.8765335943217,44.06713240171248 76.8844975503248,44.43915127113904 76.90769500371366,44.51509491482212 77.02578124792186,44.65147837655754 77.10922256713899,45.30290437522949 76.60462843153427,47.385851465755195 76.4296430972001,47.56785675268941 76.04720228714392,47.77940362498996 75.8904691156278,47.84661166139982 76.21799681848073,47.941758622848575 76.21763137473677,47.936786156424446 77.59907451622493,47.85989707902747 77.7668503821254,47.85837666142067 77.86838724541548,47.86732538461464 77.90002423228202,47.872681888788186 77.93859106233076,47.88197889202639 77.97223977766551,47.89201894036956 78.0963998256057,47.93447406323476 79.20387816051243,48.34640067663882 79.28500524107892,48.37811633045474 79.3287590837793,48.39714085969705 79.35934193350862,48.41294004396917 79.38465624301978,48.42869488868779 79.41198514161577,48.44851109351299 79.4511405434843,48.48006154673346 79.47446314883952,48.50337485508467 79.50058629762972,48.539354257616615 79.51206595116736,48.560293969525944 79.52641408778007,48.60098766785412 79.57784582484821,48.77722380670173 79.7173580857506,48.95491742959512 79.78948066110316,49.0432511179787 79.84055696658652,49.096858353805224 79.86806536886053,49.12215263900006 79.88498734506312,49.13469143575198 79.93328527688573,49.162272068589495 79.9516089551131,49.17021600027982 79.9520888235116,49.16937712452579 79.95317800319884,49.17089611182428 79.86141729639182,49.40272976034503 78.92304358369371,50.720168040615754 78.1466422614131,51.37374808342248 78.05338902800825,51.55859181696084 77.98226695323592,51.73630975509345 77.20911100024082,53.863445502010876 77.21279833475616,54.103097215100945 77.33880562572224,54.48305858590953 77.54703489817533,54.534749208760736 78.79529775312099,54.80563098603651 79.29926684404657,54.96124208077683 80.17279538946389,55.31413200846368 80.24910018596599,55.38557947834985 80.35318299783444,55.517414560039654 80.46527553557186,55.87369503329163 80.19960508618746,56.45482352986271 80.09063562638579,56.49324661393809 79.85441236202698,56.43483354259221 79.51183281093233,56.38309214380061 79.26950427606278,56.39464045213046 79.22040108073038,56.42583547376565 79.09826062795561,56.57078576640808 79.04881201319357,56.76995975770683 79.23366146796315,57.00491648416182 79.80213173704918,57.55720925245752 80.57752469205437,58.26520751583481 81.15841933323524,58.59083147848567 81.23958503212303,58.596220164593625 81.28986751655901,58.6686052014985 81.46855877941552,59.02646759560998 81.52489718873319,59.622103708157 81.54663358230296,60.227486655868255 81.34566812999525,60.5840460392176 81.27412339915271,60.812815967594354 81.29097600540793,60.93589756315809 81.48559446512002,61.19764610748331 81.61904150414027,61.35260355138085 82.16772846548713,61.410361541575654 82.68581183763776,61.46009049674336 82.98429784783559,61.539146491048875 83.91330161157785,61.84787064727542 84.07976803032979,62.11831331993646 83.64052253048587,62.37419974614313 83.45311425436213,62.27215083252065 83.32775775362269,62.1387838907591 83.27366421301029,62.12602768716202 83.13183127706938,62.193065516896844 82.2377892515837,63.3170839357192 82.18794658691358,63.53848420114437 82.11086441791117,64.37093787110223 82.23099528767766,64.96483615919779 82.42995759336499,65.64446855054055 82.628918468743,65.64980717586175 82.74873610101525,65.5640666362277 82.92845933123273,65.56584093353797 83.16942692785668,65.61845339001749 83.42054899748139,65.79898188374477 83.43440296261456,65.85598538636967 83.19867315458265,66.15566784936928 83.06905290512718,66.28146273957032 82.5031121360765,66.50100217403964 82.27155310672767,66.55840616295747 81.98928107017747,66.45194188795094 81.86497370049467,66.4883346495506 81.4948950441285,66.72830532136712 80.64983320747082,68.02888670445873 80.53132716780904,68.24286581583726 79.97190717379875,70.12898748111273 79.79374011889527,70.8473869456512 79.77907874478834,71.52714377380666 79.78873690084353,71.6150076059499 79.85806679945425,71.74168857207458 80.08660215728818,72.09250955896393 80.33199727291783,72.48460208869045 80.48853663767285,72.82253456847482 80.48230836065773,73.04315317047373 80.42643480150282,73.34695134529213 80.19184351879126,73.88301512170447 79.76710348946386,74.15765288828831 79.54453823801717,74.37516414574337 79.53689109527552,74.44664808848887 79.71241351033646,74.55955375643127 80.2277113572858,74.82101838458055 80.59644194818216,74.95169706209819 81.22651702134003,75.02919259016832 81.34965439892376,74.7366659590454 81.87952422571631,74.56246371844477 82.59592268909685,74.55352071648353 82.8847376704637,74.63519560508608 83.11588191043752,75.0686826841542 83.12429283775107,75.0747700758126 83.12856016223839,75.275263526417 82.53771486697501,76.30238214110292 82.47455889366977,76.41218046450147 82.44901501969484,76.45659010350863 82.37988679454043,76.57677532498678 82.04376794554128,77.16118065762159 82.04316507063838,77.1622290735256 81.93300917019259,77.35230129865403 81.7920179706208,77.59558814001022 81.78269093091015,77.6071807878941 81.76090447655261,77.62925616450663 81.38504236901775,77.97446104628571 81.3823240683019,77.97557382605802 81.34166183675448,77.99170055090595 81.2811783943033,78.01204096368315 80.89934904099782,78.13516761395506 80.87928682316382,78.13984043081338 79.46217036509488,78.1905284076224 79.43895217223908,78.18990264778911 79.41292413894176,78.18699054031315 78.80425720362575,78.09406985356266 78.53800104303816,77.99446962756271 78.29453112223368,78.00105476647192 78.07190937361337,78.52726228914354 77.22275184945325,79.44080513649975 77.16581986223719,79.5020595150664 76.93615313062548,79.74916957021608 76.91980256254502,79.76977387485442 76.91548374696468,79.77762841228257 76.89937704643106,79.80692541494894 76.89128364753566,79.82345834732251 76.88479433927601,79.8410060833579 76.50534358848999,80.95737878974792 76.48363365562037,81.02125563838187 76.42190656019677,81.2028811784916 76.372172598952,81.34921958523293 76.26163981229581,81.85054332115979 76.18155614155677,82.64806028325647 76.17390184727459,82.76054114966621 76.16494740284841,82.89212449711398 76.16663230589599,82.91299483907592 76.16733315691042,82.92167180371356 76.17536862832489,82.9620200826136 75.6575798996615,83.96585542542077 75.3674340165225,84.17027578716193 75.30756489143864,84.22080070883746 75.24528641220721,84.27335952875997 75.2313158769555,84.28696533542238 75.2269162489613,84.2934353345224 75.2181513203703,84.31282530750663 75.21698847981175,84.3167071639357 75.20944217379825,84.34189131540042 75.20660944842784,84.36448160296096 75.17080883441874,85.09818894090861 75.1911978776754,85.32187197820568 75.21439747652418,85.37338166707055 75.23846098152242,85.44746662526025 75.24532574568113,85.48614430419377 75.24400771668478,85.51517956046095 75.23966244040226,85.53132559446951 75.23454193707934,85.54102308400117 75.03413215950339,85.7972420568622 74.89170278504747,85.71238973861425 74.8907909635763,85.7118462215016 74.88823428768612,85.71229247765737 74.12911823988806,85.84465319760699 74.0935679298137,85.83505368418636 73.75322681103643,85.74315781325431 73.72510695200967,85.73556502222483 73.69553890594165,85.69774481305133 73.52142820506467,85.47504225201868 73.34027466665825,85.24334019185167 72.70287283979552,84.96675291520394 72.21387764531646,85.30049673745239 72.10242230987929,85.36411112453352 71.96376966419837,85.44325007671434 71.05711232047135,85.96079136205961 71.01442405737264,85.98516095300951 70.84610825012878,85.99068837901174 70.58852547840857,85.90615287402828 70.51061444580876,85.88058468481465 70.06677694152089,85.61201857649934 69.88130744815075,85.49979731102631 69.66093342885232,85.23364770839858 69.41288795214486,84.76380934666922 69.34197613267666,84.59448731761444 69.32447559681141,84.55270157898289 69.2223608890113,84.30888552359613 69.21912767734693,84.29662778240352 69.15597098888703,84.0571813185385 69.15018110133249,84.03523037873866 69.09436189388926,83.82361270618291 69.09900896519954,83.77905574543215 69.10474879196836,83.72402177718594 68.91175158659172,83.51150873170253 68.86559268066767,83.46068416046069 68.7488816777841,83.41781925429956 68.38029197224446,83.28245345684154 68.13337929962412,83.19177906910413 68.02348872134677,83.15142506897135 68.0239421290451,83.15183842803857 67.90661609363953,83.25002121862184 67.86111441432801,83.27729934127693 66.15602399610871,84.11835488469231 65.63288662996798,84.37644899159126 65.27618993703166,85.1233823893758 65.29694442403023,85.13613287174016 65.31001243481323,85.1493324708764 65.32160007661955,85.16354615851976 65.33167588266637,85.18756246334634 65.33769175891543,85.23277450524819 65.33730843632117,85.24889836947999 65.33568503652579,85.26493283944961 65.30851990821745,85.33070985251486 65.30161867119737,85.33925236818264 65.28947535465932,85.3542856224189 64.77785983614878,85.87360907176964 64.36221656691158,86.21479693299563 64.34482330416036,86.22007834598907 64.32540830078173,86.2192094337636 64.31001103311239,86.2112633566108 63.17618427587359,85.62621438529037 63.163824267643506,85.6187181400636 63.15204067361616,85.61054535906318 63.13627939251219,85.59483485389858 63.12023920130934,85.56988598813136 63.11536900192117,85.55010554101084 63.1118604559292,85.53585251989253 63.10936528329122,85.49043165299487 63.10422547080868,85.44521603532225 63.08814594612987,85.37945404049323 63.054158247753364,85.27277450410399 63.0457709205254,85.24963497819807 63.035777357197695,85.22704612094533 63.018659428774065,85.2061450273573 63.002405406495804,85.19495000515026 62.99229312758965,85.1879844042624 62.96893905545569,85.17811599290206 62.958027949423574,85.17449016163943 62.93060035956342,85.16537766815732 62.919805108495176,85.16179045521547 62.861437091856956,85.14626660526994 62.79010333147119,85.13352184413831 62.73975076193315,85.12697532355038 62.71769755509787,85.12559650645498 62.69434133749993,85.12975298205649 62.67632946645745,85.14158306110032 61.789969626261424,85.82298402852062 61.710090489591245,85.92117325549077 61.37753668375769,86.27414685620657 60.95453805465149,86.58945615134184 60.916322365263625,86.61467248474045 60.912834558740606,86.61667992228627 60.880164174207806,86.63548775983706 60.87786709925282,86.63681007975934 60.85938322650704,86.64344742491727 60.841075996822674,86.64353824948726 60.56942828951051,86.59040659113481 60.46650617273866,86.56789210990803 60.05917656985813,86.47879392179638 59.81058185480683,86.64463815648581 59.46769192683456,87.0263809761457 59.46389088281732,87.03126047253738 59.456100709259005,87.04126261771393 59.451586656608235,87.05899557865955 59.41502368833455,87.36681506495543 59.41450234100018,87.3881860147838 59.42030224071187,87.401739615197 59.42346322181426,87.40912572669313 59.62172753710378,87.84108881238367 59.515656596848636,87.94573874145034 59.50725925746149,87.93925443926875 59.75356261879308,88.21311411819711 60.321918463222545,88.56973214418254 61.09423411015582,89.00247331752908 61.4384456428957,89.01410815950449 61.459036359606635,89.06660261555871 61.6822016253396,89.63559065620834 61.691365609915245,89.65895617080825 61.69096583877595,89.9021500421325 61.67350320607936,89.92831538501528 61.406345236177735,90.3286429141486 61.37186408147431,90.38031279753085 61.145017917613906,90.47852848520269 60.66996679768435,90.6564352240163 60.59368774672978,90.68500348465977 60.54791931494254,90.70214501316897 60.2985272030746,90.75094784378292 60.0914786500324,90.74548049072459 59.9639816930851,90.74211426039868 59.94054180245872,90.74149565210593 59.925019382820985,90.74108586880948 59.79855224777069,90.69613342784434 58.564583177728096,90.1989675978268 58.551126123117605,90.1816615838758 58.54775560186575,90.18329356552103 58.527786354064716,90.19296244888905 58.38431571524533,89.96714110084658 58.13793869304244,89.53098578184985 57.07300416010845,88.88851851852901 56.702762448609285,88.8187395031469 56.45309142664449,89.02926298993734 56.45203299858334,89.03015550224788 56.3993640449307,89.14669486814861 55.94143371404139,89.6555091280695 55.93357631599561,89.6642404444183 55.7868595927381,90.17345948155706 55.723478345893014,90.393453754031 55.55206949718686,90.98844050665966 55.54545503696086,91.01140195919585 55.00812829841648,92.29881091900707 54.48654210150711,93.26234518308381 54.3771707251042,93.4644069666193 54.25522264878121,93.77170296011683 54.05544578257958,94.49070744502013 54.05011287849262,94.50990361124478 53.90345265240873,94.67540457196854 53.865158296068955,94.71861918848222 53.36299139346415,95.23678623366129 53.30284907951464,95.27685345700202 53.29798889228361,95.27828090457585 52.939959152115236,95.38345861736478 52.92810189721456,95.38694213296287 52.65851240338912,95.53114365926761 52.29260667117,95.72687489875203 51.27962736810046,96.66118367557226 51.20016087534334,96.90291362646283 51.18388396813621,96.95242660509369 51.15951294687901,97.02656305437843 51.07982046542739,97.28686913289359 51.06367443141984,97.33960888680193 51.063436285106235,97.34038697445793 51.0634920671252,97.34044990801792 51.122523031609184,97.40596016860593 51.16992916627489,97.39731181013192 51.263404812602964,97.38025896073025 51.381247904418984,97.35876285893552 51.615056093396994,97.32202253244577 51.902101783535194,97.5880198072508 51.38870481617081,97.79527432467168 51.04461628993532,97.83992783122567 50.94774723742448,97.8972703168913 50.96049557432535,98.16956523865935 50.90887217596009,98.39304088126892 50.92917969164823,98.46578134975957 51.062766900872575,98.5718229686954 51.15608735876286,98.71896520863973 51.08854606054448,98.79200461154204 50.609845509266215,99.42866911453406 50.6062532902458,99.43324538558967 50.59098045938611,99.45270258305933 50.46147606489451,99.56092399167746 50.35191445750177,99.65248159472242 50.310838866886634,99.68680827614068 50.15365586344345,99.77716942638438 49.930822429211716,99.9052764097751 49.86822785187146,99.93385468257571 49.61738326203631,99.99271830100179 49.559990715583425,100 49.29699494251706,99.83308017355124 48.921373126757764,99.57196382544619 48.1898133965575,99.38138884698836 48.036178987736896,99.36172783060196 47.660229631402316,99.31518774754511 47.61663097713972,99.36792106506657 47.7870307434158,99.58258386376033 47.76066944831199,99.8617285314529 47.69467860417235,99.98446542274266 47.363870489483915,99.98144604215268 47.183186092164185,99.92847529347125 46.9889273549628,99.3481348967133 46.32371962172017,98.99601089906284 45.863964932733836,98.70140459983111 45.81077105597554,98.59226922427882 45.59459999729358,97.78727890188681 45.44718671394758,97.10645720928382 45.57812570755608,97.03286785288199 45.75708014711905,96.60176795818418 45.78404002620184,96.47556399984087 45.68195034879663,96.23802842771843 45.62942228050072,96.16608106511949 45.06974340070788,96.11516852992428 44.67966474491456,96.16672970988368 44.480312680245085,96.09237942952507 44.39708590725599,96.03994790703136 44.4103613127265,95.8170086299929 44.685215771000834,94.95848401749302 44.793101772348486,94.79616835310935 44.965647000911005,94.65577502236188 45.06318329219356,94.64909905888267 45.07917056199203,94.58773311627708 44.98982922148769,94.35372682961506 44.330271205599566,93.82393710008017 43.79357880873681,93.7829773644289 42.42720682465204,94.09881730390255 42.49535457354459,94.79555832666644 42.6276659478611,94.93563985022799 42.48256690316573,95.15275419716038 42.2793036607504,95.25437687894187 41.32714821348314,95.52446984125086 40.97516367088059,95.52041777814726 40.630555227618025,95.32115510774048 40.52724907309523,95.04866995498311 40.5326406198198,94.89338997658885 40.06587813585404,93.58057230692775 39.973674748660486,93.51229225452934 39.6075623369065,93.21934868856893 39.506277207858446,92.99403080901001 39.90891110895025,92.15523229191899 40.07440849390273,92.01087414686765 40.195082165627205,92.01014254422815 40.44800856903464,91.84610049785847 40.51715681850336,91.5843712626939 40.49171306610193,91.48876874808639 40.202701417357346,91.27779471421576 39.83528170391882,91.19859854970716 39.56535322705162,91.24747432603927 39.53073047183882,91.55487544718937 39.68212787864934,91.82447995925105 39.4788739332365,92.14380699009355 38.36786702802352,92.3135938693101 38.26624720685762,91.88882594897117 38.42201134457631,90.81387282231611 38.65057816918897,90.00971923021616 38.69242898684246,89.91570292739155 38.65140417216975,89.40904271160544 38.308459177331144,89.01482188329166 35.741980669613945,88.0119105195763 34.11462321062372,87.94512084831223 33.216254502860494,88.19523169004542 33.23518320145475,88.31303044230742 33.36054041734885,88.42459805693767 33.37985959007789,88.80459375514262 33.37130277132905,89.00184326677085 33.180616943986415,89.38160153381635 32.91476842123332,89.48914283089053 32.85269018514886,89.50401016937667 32.38697897770169,89.30645099602498 32.364886437392485,89.26850849550124 32.18126776281953,88.92964416993038 32.122585793532416,88.81012189629901 30.78000555588955,88.373149871325 29.7781762203204,88.14854142462832 29.727201466717815,88.27006827518942 29.55689610078199,88.25775904290175 29.45672089089015,88.09531465078096 29.05290984615874,87.33854359326166 28.851003251063073,86.91973362169088 28.575599554442853,86.17998680740911 28.490727927032733,85.92043593161853 27.663291063054036,85.75145646137577 27.355852753891963,85.70358190077702 26.831291515946127,85.1409101010964 26.817162931642056,85.05856153733627 26.860207341480194,84.81668354954742 27.10210177781307,84.51301910854524 27.291645504066103,84.55474691969535 27.4793369812106,84.43814032931019 27.46555381633212,84.24044527668033 27.407418939928935,84.18950699593759 27.286659449714058,84.11956850119226 25.945189846380025,83.70034660086257 25.50288491731652,83.95965146364436 25.064639202900196,84.27102312033107 24.41826147698563,84.41756320052717 24.367109365169007,84.08536554143255 23.99406997084945,83.09148156786154 23.85291643129731,82.95452312223321 23.65079958089752,82.80748457963263 23.49549528726303,82.7881482432054 23.1986262404747,82.71212736287974 22.919636761219927,82.55512743888637 22.602410853110364,82.34504377186433 22.062751281906326,81.72597992631104 21.996345648391678,81.6188348246059 21.864896749913246,81.3801550059314 21.842693360718744,81.26338321494978 21.92431032183885,81.04936834586658 21.936757578866622,80.64605504838549 21.655669122343923,80.198680391942 20.97515137023167,79.35189646422377 20.93182375937074,79.33436660704074 20.57449343990543,79.25722364993977 20.457293271620888,79.46072146289845 20.290399190720162,79.3293619586822 20.086393618354535,79.16170909928562 20.101529139626734,78.99515972265837 20.346818412449668,78.70056129012181 20.625943055825903,78.50342477284033 21.378508292112116,78.45723010921161 21.478043439089102,78.48427366132385 21.964200186964526,77.7414352358881 22.056947806423356,77.16705064243584 22.325019743260142,76.52804472493582 23.1741458006395,75.40031394120527 23.551566228948293,75.45006935707416 24.058059813828624,75.112242720096 24.15585141512245,74.90816634747418 24.294241599249535,74.26338198488507 23.726043088721852,73.78688553852832 23.283796087141297,73.8888114456464 23.26508837116297,74.04761498826784 23.164051400585677,74.14717158986845 22.887592851673556,74.40596154170173 22.50263398404849,74.26444899479506 22.28614039086981,74.1576285730491 21.976643153068387,73.1046163740362 21.93048496229697,72.92149759217602 22.08239728005802,72.87099197966114 22.420543590915756,73.01303874667695 22.725085525993265,72.9190553409409 22.778047692825854,72.85067159119873 22.79330192967854,72.73125730583553 21.985280784231094,72.33005657355181 20.92518569905714,71.97509985052992 20.08837888612258,71.92180442188932 19.741732253687594,72.01584503995264 18.997241822291812,72.0900966290466 17.805313085737883,71.92740979968777 17.71017685160043,71.88379183626402 17.524634412511624,71.674547044996 17.37800708351579,71.18096485215004 17.396170567226807,71.00361593353011 17.66836465226823,70.85168931268852 17.849378735625205,70.82621194804487 18.19562273630428,70.72864562029191 18.683044591773694,70.4916106560359 19.469288579868127,69.45748567667887 19.74236087413801,68.26802207629198 19.692573276334212,67.71696723973494 19.56207195703163,67.35154709714502 18.679942253308916,66.94449354374625 17.899667656449083,67.04282651668925 17.544886146180794,67.07022836100289 16.824785330049203,66.77902977103547 16.71956828378635,66.55660612009967 16.643071825987125,66.38859639881001 16.285531966372357,65.96702307181519 15.76084486130754,65.53527310204437 15.688298914730119,65.49586382047134 15.22028777171541,65.6186085784563 15.015215904593441,65.91175167240903 14.686865059376354,66.13205632176057 14.231551477322126,66.23033994907098 13.56121680437072,66.23252474483236 13.295285323741805,66.18330998545899 12.500942215520773,65.95657967656196 12.434281987147475,65.78493196638956 12.391995640650018,65.70612842147922 12.099025613988438,65.61029133632836 11.917096133389002,65.6084462387629 11.540980146150158,66.47009822012141 11.291162517595396,67.3214362491185 10.55003259529432,68.09841541590711 9.057593247298547,69.07553760779392 8.879445501552665,69.11352945395026 8.530605491507462,68.92388846674137 8.125441375229704,68.4848775374418 7.55880905216911,68.19790479302279 6.731137617646054,68.32629497743528 6.515777543709148,68.395634173049 6.7432036975415315,68.26398574657826 6.885186100689034,68.04715460066765 6.968494401244617,67.81347585458091 7.001290652898433,67.72148558330862 7.119015744288627,67.47690216757766 7.175060225271702,67.3165217101758 7.290863697608002,66.78719683080318 7.27978810613561,66.5788109396035 7.363152903864819,66.51495983651655 7.750634835139378,66.24402013175936 8.716471180247645,65.58536177972178 9.207445921263556,65.4374056944173 9.396177232462204,65.3805344953003 10.201522986441024,65.137885571397 10.254985045984363,65.1156328365689 10.540234269035023,64.99690223852092 10.601979243310959,64.97120246095355 10.682180199323192,64.88797640311861 10.75796722426017,64.80933162241784 10.769526259900303,64.79733634277807 10.803704189266645,64.71178960990359 11.095996249846742,63.98021986754719 11.156756456932829,63.82815593711912 11.44624797407591,63.10369196585267 11.49700246021519,62.97668488946049 11.441431411244745,62.88192339606845 11.28861013262913,62.849645631133406 11.103212869820968,62.81049022926436 11.052141570418208,62.799704275199616 10.180724875042587,63.30621859955042 10.166679963764928,63.314382798701516 10.092058640005147,63.40955979662272 9.984892798829518,63.54625005946499 9.96542201343397,63.56307119893943 9.797388692058236,63.70823889842702 9.589499832954207,63.88784484337131 9.471457928300534,63.91283518807593 9.011448644455552,64.00194124288227 8.497734148675052,64.03911566790768 8.47488569048509,64.02654826499162 7.499977615677444,63.49037936092721 7.309535655881657,63.2771347128043 7.316671463444054,63.202580613528426 7.368905603407397,62.97784558455709 7.503955302754067,62.84325286867597 7.582769574977231,62.76470677924039 7.598045266451504,62.66595329568864 7.5018484587909455,62.553330828768004 6.974286434263147,61.935726612722966 6.963215133712633,61.92276659020916 6.569060099576495,61.64753166995515 6.343466170536324,61.52059396350986 6.329763818071703,61.51288388720923 6.28657923802946,61.48858509651452 5.769023649603129,61.1973879368549 5.754229256834641,61.19188840186267 5.684806388190952,61.166082066335434 5.833272378366896,61.10881610215772 5.61278822533783,60.320347984828494 5.291563890680656,60.01020281741499 5.0678100531278885,59.61414189761433 5.689532126453144,58.93799802794824 6.100336663080891,58.63101956286834 6.213366052682363,58.49487424744703 6.282236107208889,58.27409259031411 6.293434705187713,58.10424420784536 6.267600478649472,57.92425136453554 6.176743726618434,57.817829998774705 5.92465262319629,57.79830557682012 5.817537557963084,57.82173044921027 5.47180846823048,57.61721711743616 5.301844945953033,57.07925389174668 4.915784741019583,55.806251711184785 4.862035189529539,55.55534275748133 4.970582708415662,55.15383236347466 5.050015588930067,54.84435586514016 5.085495813902368,54.44853809773168 4.878683261711823,53.924292242743554 4.4385438192510875,53.57832572185302 4.0554658068946345,52.837752189436834 4.071308615567126,52.44992984481322 4.112868365504664,52.400886007269044 4.340973915727855,52.2951612015972 4.666425526241729,52.24665301446998 4.891377962057719,52.28629472112439 4.98243281177378,52.25213681607285 4.480195108912261,51.87948002919288 4.25647488360221,51.774403868285745 4.06124425198474,51.70525633396966 3.545786210519047,51.58052916883277 0.8177043318975413,51.33027315081792 0.5856961857783519,51.302920652136876 0.47323748914434566,51.22647711574101 0.16746691933217764,50.959417837104574 0.03706643675774941,50.69461558479251 0.01498748437493872,50.590333960084884 0.007912464910077813,50.45473573754598 0,49.886101698173306 0.12096116367117915,49.70306015295521 1.1167581744482677,49.19979548881381 1.4002652821210275,49.193166010350566 1.4403890026343673,49.21571553412787 1.536249687871818,49.414260189823054 1.4994492884371566,49.57159266047079 1.4733411578826696,49.66688050727628 1.4852577705715595,49.740058650073365 1.6375741503958174,49.86599013470672 1.8778816597906158,49.95850747454713 2.1885031198313287,50.00187656434598 2.963455539913977,50.044487590803115 3.1424028279364147,50.03651791356577 3.590023497389204,49.88430451593212 4.376511353028446,49.834015595107736 4.8528097016996625,50.30173853102362 5.125886286895491,50.42402487523319 5.606981889238243,50.46700206058792 5.783891703242917,50.4613623553926 6.012881899080437,50.224791526144706 6.2586381675280975,49.709019532031135 6.2985001416442925,49.49538154915581 6.247912286407239,49.305332924112435 6.028754029071735,49.020076549522265 6.523058527554223,48.01642500131805 6.744169870724382,47.85703145656748 6.883321693961397,47.72778451754861 6.881016037158591,47.72781956009964 6.878068887131603,47.581320958840934 7.048375683376751,46.42668822350901 7.0719514532812955,46.38996506071744 7.122799624608202,46.3281879045071 7.266262396732396,46.153897699952594 7.330855114614461,46.09721816213324 7.433959595680956,46.0129958946435 7.553810840197965,45.92552682756098 7.600712791226978,45.89830448692536 7.613732886684173,45.887316859405836 7.734559601386516,45.76450702239841 7.859959726525811,45.63673902204843 7.896503385639868,45.596120414900376 7.92350617396786,45.56610754298489 8.022329027468018,45.45626845580309 8.072108043421967,45.39468796696844 8.088644551566322,45.37076606248263 8.114894282632207,45.309847806340606 8.119170904122004,45.28815360686087 8.136296699240827,45.13229649911175 8.128181845721814,45.04107001241285 8.117431649362754,45.02458070443863 8.096617089419274,45.01106786780867 8.066208022134754,44.99866995641349 8.00452884203696,44.98487534907006 7.779639339780462,44.91191318280982 7.500775012494078,44.75891740659577 7.481261317849264,44.7418953088207 7.463312380368314,44.71140542912385 7.459730173505043,44.68260831917027 7.466002790074697,44.665766440226875 7.4749679618126885,44.65070958590556 7.501764785760467,44.61943232154922 8.601859154634038,43.57115658810931 8.430039807478806,43.24223791054138 8.243576249916337,42.50877658560303 8.246461896691127,42.458213760760366 8.245750318364893,42.45527948350765 8.207338676755985,42.2969972882216 8.202494222913305,42.28718966495931 8.189196647666552,42.2717037181804 8.143707125976166,42.23663113104106 8.1584006820165,42.222205042631614 8.074423712381918,41.99715177008798 7.975221827213453,41.00888747739698 8.199711558328623,41.008298190422515 8.496574168731089,40.75099718941578 8.930001174856326,40.038632195132855 9.498623771761508,38.52194697784574 9.890525355344554,37.29930237290146 9.963094186852885,36.887179092120675 9.871239079703571,35.99612426529008 9.48357764475302,35.30796151589864 8.923647745872811,34.55039735248815 8.791764748859737,34.09497864278084 8.935379848805104,33.38062480495961 9.13611144572312,33.14808887511713 8.232477773511004,32.26139934888335 7.693440386371518,32.173662814169425 7.319070805432452,31.811790551046407 7.284603953812113,31.74562735476978 7.322893304073317,31.529444853623886 7.905162471424156,30.305279831072305 8.051837715745796,30.099854677827015 8.24172257050051,29.840674251857937 8.392330447191616,29.679396991220614 8.650922301339875,29.60993264364054 8.723657048597804,29.536027189128873 8.203126419135003,28.392688882423325 8.111057480910286,28.249555081182727 7.738902017052423,27.957328099625602 7.5106491450866315,27.49374018468863 7.531533790130131,27.28994558278077 7.76516032996816,27.275865628953103 8.643046309289133,26.879226864643424 8.828412820471193,26.687287372172257 8.666250914216494,25.556717426683395 8.448776129621278,24.682706152250464 8.511223385218932,24.306763804426087 8.871814092203426,23.327482705356758 8.843714257492994,23.14925986843279 8.665672354553838,22.90723026797591 8.113965297463354,22.591767929864304 7.727073368315889,22.5352750472635 7.455274763491882,22.24925703356187 7.438176144227881,22.10259752263163 7.843994626503584,20.832732723085538 8.078317726430095,20.719246350018008 8.66566520301331,20.783859807370042 9.018902695590754,20.940670930682398 9.392951172340398,20.702828557453124 10.325734525474243,19.658024897145857 10.174214827311957,19.4146343584454 9.403777175032713,19.037904053839227 8.312032945375144,18.716008189486942 7.496996138253076,18.624209579511763 7.103895956406807,18.34624777669306 6.585700305065621,17.646084741583778 6.257196416872698,17.196604671483957 6.001200572088535,16.817380624547607 5.9862946152821195,16.48541753599581 6.835929862378778,15.617661714434352 6.92820261951769,14.843000362068164 6.885228294779572,14.573463789645576 7.0134146602748295,14.390156922258033 7.813439667783757,13.560400813547595 8.601482268425652,13.587364983555313 8.85046388184249,13.433601131842927 8.828494348037685,13.339049893755012 8.702878961513658,12.970779862095982 8.574848499610853,12.785745182414642 8.334053970277035,12.592900304858668 8.201380012833193,12.533573266578637 7.643319526759194,12.399584140754056 7.085708872610218,12.146498257984916 6.974488107717419,12.062179444691958 6.656462657327233,11.687616772148475 6.65634894782735,11.584878449978557 7.004754144183249,10.859262365464854 7.347827151602784,10.265883994396365 8.045148164339173,9.681780456789326 8.27175761219326,9.691887729617928 8.658918439278398,9.550312106119925 9.057784908595671,9.140164796104708 9.46205937318053,8.637803371585145 9.502369748912422,8.193988895259007 9.633062014359497,8.217228542738411 10.0625077576348,8.34205368398633 10.379232342724286,8.447282887869807 10.540300778365795,8.576157231605219 10.797209159773766,8.84228037353126 10.873847218084387,8.979092212569613 10.658087373008188,9.114468022184784 10.633502520675592,9.269745855117087 11.25467321019301,9.859599946803732 11.306745010176002,9.8828524670569 12.569978900951561,9.883816494777287 14.375977562012553,9.223010534992335 15.073428017637173,8.889077196908211 15.92807005855483,9.632313963174946 17.475810127274055,9.256753650668358 17.60178452115413,9.185653030518125 17.757327676254857,8.961504427905144 17.90579009065952,8.789731565765885 18.05883449735099,8.723615569659897 18.505649188139323,8.653252988536053 18.50613763838564,8.653182188280356 18.58778821174846,9.078616632235809 18.594743800480202,9.098461443225158 18.61467729057657,9.129544185666742 18.64181810364468,9.158049512749704 18.68539673359298,9.196136474400452 18.703987879454807,9.214754796116589 18.725357398975373,9.238979210784827 18.756674711959793,9.291425036360602 18.76960326769335,9.31701468019683 18.78507848715994,9.353513284602208 18.790752519752644,9.377035417949235 18.882358753276545,9.891590219792587 18.899243541465143,9.889325326773024 19.743367811104108,9.969355360956577 20.665764266158853,9.868098122918012 20.877650836653796,10.452944705630014 20.903884834331333,10.519758692132793 21.328821531036464,11.096526179030963 21.496066752598047,11.152872455041798 21.70998507587752,11.212870307863295 21.84818788963139,11.153280808030438 21.907272490674416,11.03748234177271 21.87538162410388,10.959790861480528 23.06425736782613,11.108114535990412 24.71172138420285,11.67957414919347 24.76316670919941,12.07641530211208 24.687524145390448,12.478956233169908 25.275164835151568,13.264297696794628 25.499250504205566,13.300309996415137 26.38852817310978,13.426997398927215 27.269075240818328,13.677937819410927 27.451467426118583,14.277685352851789 27.58321239839154,14.734494322119948 27.66816555336815,14.815387547296243 28.277877328816892,15.213296425279504 29.566475589889347,15.134741038840422 31.52546073015886,13.894879814206321 32.64434148196062,13.021372008256437 33.23008057698418,12.519892368736617 33.068484357620406,11.969687135244406 33.174050399084194,10.244914961169757 33.22510381963462,9.709178010178547 33.337523897947335,9.287784902015904 33.957497419508826,8.108929182323548 34.10286750760586,7.848802607485911 34.36409828036544,7.62698969814819 34.92760251941373,7.346808057017587 35.44823112498806,6.9842056215633646 35.555583621380215,5.9926094259428195 35.53037372436848,5.875038807836769 35.53512592333286,5.699738090545911 35.61347319992927,5.413178705194102 35.869086437271804,5.019548594163103 36.238941965560095,4.731201323572591 36.4702292363526,4.631844965118965 36.59010479610578,4.222926289839931 36.88168885413092,3.077710703633998 36.99355468801919,2.487438246801567 37.51601837900235,1.5689415270272187 38.24066256910149,0.7948801889473044 38.879942390618254,0.2677172204041384 38.95516158320439,0.10464778360420221 38.94402091270851,0 39.11724982858575,0.08187370144121803 39.12330074738481,0.09627690491924824 39.18615134989304,0.2458878568008966 39.18758523385325,0.2558921474393928 39.242464013661156,0.6389158080836661 39.318709452373014,1.171103449299658 39.43547051604231,1.641588310331267 40.1282145425664,1.8534691595945003 40.800673938335294,2.0591760835537682 40.81528096073057,2.0512135578569457 41.66208348245479,1.589593031836193 41.7740623106903,1.5669476774098263 41.81772961974562,1.581507499634972 44.26954532590883,2.399189661755251 44.30792120981509,2.411990920060501 44.83656883825886,2.675378597571987 44.872887223833075,2.693474141643923 44.9877295290651,2.829351274280188 45.18032624814981,3.2155752495007737 45.207653716436475,3.446857514214198 45.21732903619137,3.5287476641994435 45.21868067743247,3.5401886994152756 45.232425223987626,3.6565128039328063 45.194291777320906,3.6557068252673353 45.03526439146844,3.6523463161741514 44.95845040525107,3.650723631531909 44.83094057553001,4.098858496778538 44.618150765411706,4.846774516290476 44.61297376491516,4.95714138719454 44.608008450032074,5.06301995099688 44.59190246465311,6.061351467886882 44.58946736495801,6.212282594227841 44.58227863599326,6.65795089300013 44.576248456661126,7.031792690215406 44.68078539138054,7.186077889263175 44.73504198712593,7.266155838771009 45.113102478349575,7.824168409521233 45.18496187699566,7.811239138633012 45.42773237709504,7.76756181741953 45.64069954542738,7.729248867074277 45.664940408641684,7.7789084522945995 46.24979128227759,8.97713984188962 46.25162636768642,8.995073045982222 46.26969616620981,9.171642446638353 46.28143470553,9.28634672713026 46.2949024874523,9.417947953430373 46.302249265473485,9.489740842745176 46.271078559077004,9.515325480502833 45.928778633231836,9.796290215367488 45.88372607069474,9.833270833632804 45.785001193306115,9.85337381525056 45.61991931288332,9.886990348651919 45.58909760168574,9.893266540992345 45.3427477553397,10.012713008289454 45.10716669935972,10.198645206360917 45.078604159948476,10.22608709930365 44.392505345276476,10.885308277614003 44.50198685541003,11.112524891295909 45.065945217309284,11.759888814706601 45.07347221416112,11.765656532484897 46.450458515326794,12.820832787789701 46.6069184979793,12.884665296870146 47.80666315363907,13.064812613464623 47.82778952076745,13.066359491772594 48.497082929355386,13.115389741388851 48.53642141067323,13.118271812392868 48.55759497797072,13.10670204943991 48.692740507966974,13.032855952717979 48.90751344039137,12.76217441858918 49.01175144069963,12.760967953630258 49.26138885042171,12.864914171067404 49.462601030892884,12.984897719090279 49.46495531817413,12.98630156657956 50.2195036767644,13.436278668775547 50.23618893696068,13.446230038011189 50.34622111574944,13.51185329294543 50.4546692282147,13.576532544474592 50.50459628106794,13.681608705381725 50.49509331344851,13.821444931089138 50.48272329306331,14.003483830265562 50.45528354558406,14.264381341217645 50.39327610975428,14.853985128971075 50.383131648912695,14.950447258801583 50.295658290905244,15.057462202461299 50.26888006096243,15.090223411564597 50.23889436490278,15.12690795603488 50.099886287639116,15.27179817573342 50.095530284044784,15.583055407765077 50.08668811881119,16.214902632771274 50.10542015002772,16.238346814321567 50.14862189376763,16.292413894231274 50.251129221164476,16.378786630085518 50.26198597548492,16.387934166117642 50.5426124424635,16.45461441880523 50.56743830172632,16.4575279565895 50.580337536141066,16.459041937808912 50.63083957288569,16.464969850104588 50.665710486571264,16.469062676991435 50.698051900219454,16.472858714929092 50.83020093455765,16.376689083123864 50.84544444409853,16.36559632795278 50.87992202303068,16.34050586167467 50.920924667927146,16.310667487358128 51.0491668154434,16.154504293656327 51.16253661839189,15.932136424740504 51.19895512553959,15.860705403398367 51.28134731370008,15.827779708852763 51.47818418141526,15.749122055377729 51.52279048779861,15.731296839553808 51.6369340874802,15.792328090042572 51.66562964555096,15.807671721156435 51.92773219115518,15.947819754049263 53.12519121432643,17.031733046363755 53.146042962281875,17.05806358984299 53.16807829026482,17.08588880538099 53.22029812714508,17.15182958873388 53.32696979683912,17.309056216575403 53.43743035293132,17.471871058517706 53.5345489942202,17.481690839399604 54.289070176955654,17.558002072287568 54.67549654078568,17.31801137615625 54.82888851236876,17.371233143925043 54.890860190491836,17.39273568210715 54.96134220235133,17.490497962082678 55.179669450627486,17.823188362349057 55.35583550437457,18.091646482395696 55.5488763341531,18.38583298617385 55.6468696089012,18.64637077461573 55.69863317746854,18.78400074993916 55.7488255524902,18.819293604539773 56.02721787807532,18.807026566344177 56.93539993033355,18.69804065799798 56.993651376853244,18.69090628074338 57.31741593885758,18.651258852856746 57.491505900263576,18.629942254739543 57.78837208643732,18.593595978156355 58.67930104614843,18.835503287262995 58.71575102007486,18.855408171196235 59.587958675879214,19.33174084726483 59.77587185079431,19.431203763678827 60.782476270256716,19.592415230139025 61.15435568463638,19.62045713736803 61.50461885132998,19.62420525998141 61.870203479361706,19.636643935159835 61.91296969425766,19.646596734703788 62.092016388700955,19.68826518806365 62.10699529122604,19.696513060244207 62.28017557662484,19.791878143692276 62.56889186672753,20.057777442386275 62.61883465296913,20.103775438638788 63.19537472086499,20.634800954450387 63.29113742998888,20.743224036523802 63.47039151911968,20.946182623294245 63.6309908136745,21.256474397297207 63.64031284730659,21.2744862683407 63.707405743905205,21.560660185635285 63.67716616814156,21.652741281477578 63.44181682208933,21.725612623167823 63.24701599808259,21.657421249876936 63.072206591655174,21.59622980487079 63.0394511037846,21.58476445441574 62.70803582326936,21.468760738932463 62.650254948143655,21.437796712070348 62.528330471906244,21.372460233928148 62.2457037189239,21.542155573420555 62.23612923589715,21.563843336512907 62.1001813030057,21.871805853627492 62.10101588783429,21.890623703335944 62.105708729008434,21.99635423024102 62.10705679447824,22.02672897012867 62.12173676259015,22.06003441149877 62.20431846658581,22.24738905106499 62.23849138987358,22.324919621685638 62.57305692417737,22.510476363856515 62.61354537328,22.504366802420858 62.756483937453204,22.48279632459967 63.02681433092165,22.513341986316505 63.10440354417738,22.52210906036998 63.60861721780446,22.835575403401727 63.651831119163475,22.862442312452576 64.17741645777308,23.21678543326079 64.22180392700245,23.351336670204 64.2395797971953,23.40522067066491 64.51442495846513,23.66411074407168 64.5231326747299,23.671519740498713 64.65184467848546,23.78103843864575 64.77557277335093,23.88631913362428 64.99621139966517,23.954767247235267 65.85418105258744,23.969668197964126 66.11247039655328,24.05459918316246 66.57723473997723,24.207434049704975 66.88728407674319,24.426504343087615 66.96917851765285,24.48437032155109 67.00703519968467,24.511119945330268 67.15052228704707,25.0491575470452 67.235132168058,25.366442812946026 67.44001666480676,26.134812239581915 67.48517149438133,26.30416430510865 67.52350089327112,26.515171951221486 67.49833104488796,26.589947033113287 67.40018043623809,27.978017507601713 67.39980140456775,27.98338330877825 67.06893536239839,28.498443724567114 67.06248753307666,28.676964065594927 67.62049724321027,29.387531162482002 67.66454715970721,29.44362856486793 67.78957898048797,29.47215320111103 68.23230656562167,29.573164426141307 68.33619628588367,29.59686963893662 68.42980495087532,29.618229146299534 68.78602320572044,29.547671328107793 69.16545321703548,29.53158322158066 69.85890739157851,29.502199685269236 69.93601959705236,29.52696118066324 71.27576782447947,31.41021865378754 71.29479807495451,31.436972568491132 71.3671123116042,31.685118166770554 71.3735794500876,31.70730868319231 71.43241446235055,31.909206696439647 71.50101061285879,32.1446082487416 71.59701861983883,32.47409189804478 71.61982059301029,32.719760202538566 71.56537948751034,32.73838639094939 71.38899674207327,32.79873395412343 71.20999581749382,32.859979750840736 71.11383619784523,32.87303703431193 70.86534804075328,32.90678158029626 70.61922203763979,33.24052182677444 70.64068524234594,33.26474695659734 71.21399567434669,33.91187130338612 71.2414490097564,33.94286107579576 72.0691490504436,34.50198642631779 72.1288393870041,34.52348038265106 73.00620330383401,34.839441898320786 73.07059506341646,34.83480913009206 73.75986701680995,34.785233217900696 73.80674107682948,34.78186269664986 73.86306804368068,34.75648187780894 73.93851465526659,34.72248631273724 73.95321321738753,34.715863270660876 73.94366161928966,34.40221241787253 73.89176860783003,34.32728500815905 73.86321536542329,34.31553717183587 73.68847532894326,34.24364559125639 73.53656444149154,33.98474836630909 73.91754776750193,33.210299414708985 74.1270914931821,33.12523469569496 74.15844241840924,33.129369001519706 74.42195596304276,33.164116908699874 74.44259101930618,33.166838070032355 74.61419653538805,33.20375432442936 74.84624902106175,33.25367708635666 74.90676607575567,33.47590478507041 74.91116999467377,33.49207871008846 74.96197239613886,33.524447299594 75.24149609550176,33.419213804785095 75.40086174924335,33.35921881258022 75.43880210430362,33.34493575498997 75.48167988323954,33.29466900394284 75.61617033208317,33.137005416949044Z" class="mapstyle" stroke="blue" fill="none" stroke-width="0.3" id="1675"/>
        </svg>
    